<?xml version="1.0" encoding="UTF-8" standalone="no"?>
<svg
   xmlns:dc="http://purl.org/dc/elements/1.1/"
   xmlns:cc="http://creativecommons.org/ns#"
   xmlns:rdf="http://www.w3.org/1999/02/22-rdf-syntax-ns#"
   xmlns:svg="http://www.w3.org/2000/svg"
   xmlns="http://www.w3.org/2000/svg"
   xmlns:sodipodi="http://sodipodi.sourceforge.net/DTD/sodipodi-0.dtd"
   xmlns:inkscape="http://www.inkscape.org/namespaces/inkscape"
   version="1.1"
   id="svg2"
   xml:space="preserve"
   width="4007.76"
   height="2666.6667"
   viewBox="0 0 4007.76 2666.6667"
   sodipodi:docname="19833.eps"><metadata
     id="metadata8"><rdf:RDF><cc:Work
         rdf:about=""><dc:format>image/svg+xml</dc:format><dc:type
           rdf:resource="http://purl.org/dc/dcmitype/StillImage" /></cc:Work></rdf:RDF></metadata><defs
     id="defs6"><clipPath
       clipPathUnits="userSpaceOnUse"
       id="clipPath120"><path
         d="m 15500,14439.4 h -4531.4 v 480.9 H 15500 Z"
         id="path118" /></clipPath><linearGradient
       x1="0"
       y1="0"
       x2="1"
       y2="0"
       gradientUnits="userSpaceOnUse"
       gradientTransform="matrix(4531.38,0,0,-4531.38,10968.6,14679.9)"
       spreadMethod="pad"
       id="linearGradient126"><stop
         style="stop-opacity:1;stop-color:#ff9f55"
         offset="0"
         id="stop122" /><stop
         style="stop-opacity:1;stop-color:#ffd255"
         offset="1"
         id="stop124" /></linearGradient><clipPath
       clipPathUnits="userSpaceOnUse"
       id="clipPath310"><path
         d="m 6866.77,2760.8 h 2689.7 l -154.38,3875.6 h -2689.7 z"
         id="path308" /></clipPath><linearGradient
       x1="0"
       y1="0"
       x2="1"
       y2="0"
       gradientUnits="userSpaceOnUse"
       gradientTransform="matrix(-3629.99,3629.99,3629.99,3629.99,9333.84,3499.2)"
       spreadMethod="pad"
       id="linearGradient316"><stop
         style="stop-opacity:1;stop-color:#ff9f55"
         offset="0"
         id="stop312" /><stop
         style="stop-opacity:1;stop-color:#ffd255"
         offset="1"
         id="stop314" /></linearGradient></defs><sodipodi:namedview
     pagecolor="#ffffff"
     bordercolor="#666666"
     borderopacity="1"
     objecttolerance="10"
     gridtolerance="10"
     guidetolerance="10"
     inkscape:pageopacity="0"
     inkscape:pageshadow="2"
     inkscape:window-width="640"
     inkscape:window-height="480"
     id="namedview4" /><g
     id="g10"
     inkscape:groupmode="layer"
     inkscape:label="ink_ext_XXXXXX"
     transform="matrix(1.3333333,0,0,-1.3333333,0,2666.6667)"><g
       id="g12"
       transform="scale(0.1)"><path
         d="M 30058.2,20000 V 0 H 0 v 20000 h 30058.2"
         style="fill:#fafafa;fill-opacity:1;fill-rule:nonzero;stroke:none"
         id="path14" /><path
         d="m 2236.19,13592.7 c 0,0 1694.5,728.2 2348.97,-258.7 654.46,-987 -262.38,-925.6 -262.38,-925.6 0,0 -50.92,-456.3 -916.45,623.7 -407.95,509 -1170.14,560.6 -1170.14,560.6"
         style="fill:#bbd070;fill-opacity:1;fill-rule:nonzero;stroke:none"
         id="path16" /><path
         d="m 1940.64,16406.2 c 0,0 1504.21,466.5 2494.57,-1441.4 990.35,-1908 1880.71,-2058.8 1880.71,-2058.8 0,0 -3402.17,-610.5 -4375.28,3500.2"
         style="fill:#97a43c;fill-opacity:1;fill-rule:nonzero;stroke:none"
         id="path18" /><path
         d="m 5690.41,12795.9 c -131.72,-634.4 -1583.67,588.8 -1726.66,1685.7 -142.98,1096.9 141.74,1901.7 -146.88,2605.4 0,0 2522.18,-1167.5 1873.54,-4291.1"
         style="fill:#48753a;fill-opacity:1;fill-rule:nonzero;stroke:none"
         id="path20" /><path
         d="m 6083.23,15973.4 c -59.85,0 -117.11,-8.9 -169.86,-25 -69.54,168.7 -242.33,288.2 -444.53,288.2 -224.73,0 -413.19,-147.6 -463.8,-346.5 -38.83,14.7 -81.12,22.8 -125.47,22.8 -187.08,0 -338.75,-144.1 -338.75,-322 h 495.61 181.89 387.65 295.33 659.15 c 0,211.2 -213.65,382.5 -477.22,382.5"
         style="fill:#ebebeb;fill-opacity:1;fill-rule:nonzero;stroke:none"
         id="path22" /><path
         d="m 3090.69,14701.3 c -45.63,0 -89.29,-6.7 -129.52,-19 -53.03,128.6 -184.77,219.7 -338.95,219.7 -171.36,0 -315.06,-112.6 -353.66,-264.2 -29.6,11.2 -61.85,17.4 -95.67,17.4 -142.64,0 -258.29,-109.9 -258.29,-245.5 h 377.9 138.69 295.59 225.18 502.61 c 0,161 -162.91,291.6 -363.88,291.6"
         style="fill:#ebebeb;fill-opacity:1;fill-rule:nonzero;stroke:none"
         id="path24" /><path
         d="M 22437.2,2848.9 H 4177.19 c -462.76,0 -837.89,375.1 -837.89,837.8 v 10156.7 c 0,462.7 375.13,837.9 837.89,837.9 H 22437.2 c 462.8,0 837.9,-375.2 837.9,-837.9 V 3686.7 c 0,-462.7 -375.1,-837.8 -837.9,-837.8"
         style="fill:#004e8c;fill-opacity:1;fill-rule:nonzero;stroke:none"
         id="path26" /><path
         d="m 6543.16,17052.3 c -421.55,0 -763.29,341.7 -763.29,763.3 0,421.5 341.74,763.2 763.29,763.2 421.56,0 763.3,-341.7 763.3,-763.2 0,-421.6 -341.74,-763.3 -763.3,-763.3 z m 993.37,1020.6 c -24.15,93.5 -61.2,181.8 -109.06,262.9 l 111.03,167 -154.03,154.1 -154.03,154 -166.97,-111 c -81.17,47.8 -169.46,84.9 -262.94,109 l -39.53,196.4 h -217.84 -217.83 l -39.53,-196.4 c -93.5,-24.1 -181.78,-61.2 -262.94,-109 l -166.97,111 -154.03,-154 -154.04,-154.1 111.03,-167 c -47.85,-81.1 -84.9,-169.4 -109.06,-262.9 l -196.41,-39.5 v -217.8 -217.9 l 196.41,-39.5 c 24.16,-93.5 61.21,-181.8 109.06,-263 l -111.03,-166.9 154.04,-154.1 154.03,-154 166.97,111 c 81.16,-47.8 169.44,-84.9 262.94,-109 l 39.53,-196.4 H 6543.16 6761 l 39.53,196.4 c 93.48,24.1 181.77,61.2 262.94,109 l 166.97,-111 154.03,154 154.03,154.1 -111.03,166.9 c 47.86,81.2 84.91,169.5 109.06,263 l 196.42,39.5 v 217.9 217.8 l -196.42,39.5"
         style="fill:#ffce55;fill-opacity:1;fill-rule:nonzero;stroke:none"
         id="path28" /><path
         d="m 7526.35,15856.5 c -193.26,0 -349.93,156.7 -349.93,349.9 0,193.3 156.67,350 349.93,350 193.25,0 349.92,-156.7 349.92,-350 0,-193.2 -156.67,-349.9 -349.92,-349.9 z m 455.4,467.9 c -11.08,42.9 -28.06,83.4 -50,120.6 l 50.9,76.5 -70.62,70.6 -70.6,70.7 -76.56,-50.9 c -37.2,21.9 -77.68,38.9 -120.54,50 l -18.12,90 h -99.86 -99.88 l -18.11,-90 c -42.86,-11.1 -83.34,-28.1 -120.55,-50 l -76.54,50.9 -70.62,-70.7 -70.61,-70.6 50.9,-76.5 c -21.95,-37.2 -38.93,-77.7 -50,-120.6 l -90.05,-18.1 v -99.9 -99.8 l 90.05,-18.1 c 11.07,-42.9 28.05,-83.4 50,-120.6 l -50.9,-76.5 70.61,-70.6 70.62,-70.7 76.54,50.9 c 37.21,-21.9 77.69,-38.9 120.55,-50 l 18.11,-90 h 99.88 99.86 l 18.12,90 c 42.86,11.1 83.34,28.1 120.54,50 l 76.56,-50.9 70.6,70.7 70.62,70.6 -50.9,76.5 c 21.94,37.2 38.92,77.7 50,120.6 l 90.05,18.1 v 99.8 99.9 l -90.05,18.1"
         style="fill:#ffce55;fill-opacity:1;fill-rule:nonzero;stroke:none"
         id="path30" /><path
         d="m 2574.39,10651.4 -287.62,250.7 c -23.6,20.6 -26.05,56.4 -5.48,80 20.57,23.5 56.35,26 79.93,5.4 l 203.4,-177.3 290.05,323.5 c 20.89,23.3 56.71,25.3 80,4.4 23.3,-20.9 25.25,-56.7 4.36,-80 l -364.64,-406.7"
         style="fill:#ffd179;fill-opacity:1;fill-rule:nonzero;stroke:none"
         id="path32" /><path
         d="m 15710.9,15417.9 h 372.3 l -113.9,236.3 h -372.4 l 114,-236.3"
         style="fill:#ffdc7d;fill-opacity:1;fill-rule:nonzero;stroke:none"
         id="path34" /><path
         d="m 15536.6,15417.9 h 88.8 l -114,236.3 h -88.7 l 113.9,-236.3"
         style="fill:#ffdc7d;fill-opacity:1;fill-rule:nonzero;stroke:none"
         id="path36" /><path
         d="m 14250.2,15699.4 h 1507.7 l -50,118.2 h -1507.8 l 50.1,-118.2"
         style="fill:#ffdc7d;fill-opacity:1;fill-rule:nonzero;stroke:none"
         id="path38" /><path
         d="m 2102.76,12689.2 h 485.34 l -148.55,308.2 h -485.33 l 148.54,-308.2"
         style="fill:#ffd179;fill-opacity:1;fill-rule:nonzero;stroke:none"
         id="path40" /><path
         d="m 1875.66,12689.2 h 115.66 l -148.56,308.2 h -115.64 l 148.54,-308.2"
         style="fill:#ffd179;fill-opacity:1;fill-rule:nonzero;stroke:none"
         id="path42" /><path
         d="M 6525.64,8738.9 H 4065.86 v 2459.8 H 6525.64 V 8738.9"
         style="fill:#ffdf69;fill-opacity:1;fill-rule:nonzero;stroke:none"
         id="path44" /><path
         d="M 6525.64,11387.4 H 4065.86 v 2459.8 h 2459.78 v -2459.8"
         style="fill:#f0f0f0;fill-opacity:1;fill-rule:nonzero;stroke:none"
         id="path46" /><path
         d="M 9172.37,11387.4 H 6712.59 v 2459.8 h 2459.78 v -2459.8"
         style="fill:#f0f0f0;fill-opacity:1;fill-rule:nonzero;stroke:none"
         id="path48" /><path
         d="m 13332.5,8750.5 h -2459.8 v 2459.8 h 2459.8 V 8750.5"
         style="fill:#f0f0f0;fill-opacity:1;fill-rule:nonzero;stroke:none"
         id="path50" /><path
         d="m 15979.3,8750.5 h -2459.8 v 2459.8 h 2459.8 V 8750.5"
         style="fill:#ffdf69;fill-opacity:1;fill-rule:nonzero;stroke:none"
         id="path52" /><path
         d="M 9172.37,6103.8 H 6712.59 V 8563.6 H 9172.37 V 6103.8"
         style="fill:#f0f0f0;fill-opacity:1;fill-rule:nonzero;stroke:none"
         id="path54" /><path
         d="M 9172.37,3457 H 6712.59 V 5916.8 H 9172.37 V 3457"
         style="fill:#ffdf69;fill-opacity:1;fill-rule:nonzero;stroke:none"
         id="path56" /><path
         d="m 13332.5,3457 h -2459.8 v 2459.8 h 2459.8 V 3457"
         style="fill:#f0f0f0;fill-opacity:1;fill-rule:nonzero;stroke:none"
         id="path58" /><path
         d="M 6525.64,6097.9 H 4065.86 V 8557.7 H 6525.64 V 6097.9"
         style="fill:#f0f0f0;fill-opacity:1;fill-rule:nonzero;stroke:none"
         id="path60" /><path
         d="m 15979.1,5916.8 c 0,0 -1.7,-1138.6 -268.6,-2103.8 l -568.8,-356 H 13136 c 381.1,1014 383.4,2459.8 383.4,2459.8 h 2459.7"
         style="fill:#ffdf69;fill-opacity:1;fill-rule:nonzero;stroke:none"
         id="path62" /><path
         d="m 15141.7,3457 v 364.2 h 568.8 z"
         style="fill:#deba35;fill-opacity:1;fill-rule:nonzero;stroke:none"
         id="path64" /><path
         d="m 13332.4,8563.6 c 0,0 -1.7,-1138.6 -268.6,-2103.7 l -568.9,-356.1 h -2005.6 c 381,1014.1 383.3,2459.8 383.3,2459.8 h 2459.8"
         style="fill:#4ba2f4;fill-opacity:1;fill-rule:nonzero;stroke:none"
         id="path66" /><path
         d="m 12494.9,6103.8 v 364.3 h 568.9 z"
         style="fill:#375eab;fill-opacity:1;fill-rule:nonzero;stroke:none"
         id="path68" /><path
         d="m 15979.3,11385.6 h -2459.8 v 2459.8 h 2459.8 v -2459.8"
         style="fill:#f0f0f0;fill-opacity:1;fill-rule:nonzero;stroke:none"
         id="path70" /><path
         d="m 13332.4,13845.4 c 0,0 -1.7,-1138.6 -268.6,-2103.8 l -568.9,-356 h -2005.6 c 381,1014.1 383.3,2459.8 383.3,2459.8 h 2459.8"
         style="fill:#ffdf69;fill-opacity:1;fill-rule:nonzero;stroke:none"
         id="path72" /><path
         d="m 12494.9,11385.6 v 364.3 h 568.9 z"
         style="fill:#deba35;fill-opacity:1;fill-rule:nonzero;stroke:none"
         id="path74" /><path
         d="m 6525.53,5916.8 c 0,0 -1.72,-1138.6 -268.61,-2103.8 L 5688.07,3457 H 3682.38 c 381.07,1014 383.36,2459.8 383.36,2459.8 h 2459.79"
         style="fill:#f0f0f0;fill-opacity:1;fill-rule:nonzero;stroke:none"
         id="path76" /><path
         d="m 5688.07,3457 v 364.2 h 568.85 z"
         style="fill:#c9c9c9;fill-opacity:1;fill-rule:nonzero;stroke:none"
         id="path78" /><path
         d="m 19985.4,8738.9 h -2459.8 v 2459.8 h 2459.8 V 8738.9"
         style="fill:#ffdf69;fill-opacity:1;fill-rule:nonzero;stroke:none"
         id="path80" /><path
         d="m 19985.4,11387.4 h -2459.8 v 2459.8 h 2459.8 v -2459.8"
         style="fill:#f0f0f0;fill-opacity:1;fill-rule:nonzero;stroke:none"
         id="path82" /><path
         d="m 22632.1,11387.4 h -2459.8 v 2459.8 h 2459.8 v -2459.8"
         style="fill:#f0f0f0;fill-opacity:1;fill-rule:nonzero;stroke:none"
         id="path84" /><path
         d="m 22632.1,6103.8 h -2459.8 v 2459.8 h 2459.8 V 6103.8"
         style="fill:#f0f0f0;fill-opacity:1;fill-rule:nonzero;stroke:none"
         id="path86" /><path
         d="m 22632.1,3457 h -2459.8 v 2459.8 h 2459.8 V 3457"
         style="fill:#ffdf69;fill-opacity:1;fill-rule:nonzero;stroke:none"
         id="path88" /><path
         d="m 19985.4,6097.9 h -2459.8 v 2459.8 h 2459.8 V 6097.9"
         style="fill:#f0f0f0;fill-opacity:1;fill-rule:nonzero;stroke:none"
         id="path90" /><path
         d="m 19985.3,5916.8 c 0,0 -1.8,-1138.6 -268.6,-2103.8 l -568.9,-356 h -2005.7 c 381.1,1014 383.4,2459.8 383.4,2459.8 h 2459.8"
         style="fill:#f0f0f0;fill-opacity:1;fill-rule:nonzero;stroke:none"
         id="path92" /><path
         d="m 19147.8,3457 v 364.2 h 568.9 z"
         style="fill:#c9c9c9;fill-opacity:1;fill-rule:nonzero;stroke:none"
         id="path94" /><path
         d="m 15979.1,8563.6 c 0,0 -1.7,-1138.6 -268.6,-2103.7 l -568.8,-356.1 H 13136 c 381.1,1014.1 383.4,2459.8 383.4,2459.8 h 2459.7"
         style="fill:#f0f0f0;fill-opacity:1;fill-rule:nonzero;stroke:none"
         id="path96" /><path
         d="m 15141.7,6103.8 v 364.3 h 568.8 z"
         style="fill:#c9c9c9;fill-opacity:1;fill-rule:nonzero;stroke:none"
         id="path98" /><path
         d="M 23960.7,9223.6 H 25694 v 121.5 h -1733.3 v -121.5"
         style="fill:#ffd887;fill-opacity:1;fill-rule:nonzero;stroke:none"
         id="path100" /><path
         d="M 23960.7,8605.3 H 25694 v 510.8 h -1733.3 v -510.8"
         style="fill:#ffd887;fill-opacity:1;fill-rule:nonzero;stroke:none"
         id="path102" /><path
         d="m 10405,15439.1 h 600.4 v 44.8 H 10405 v -44.8"
         style="fill:#ffdc7d;fill-opacity:1;fill-rule:nonzero;stroke:none"
         id="path104" /><path
         d="m 10405,15298.1 h 600.4 v 121.4 H 10405 v -121.4"
         style="fill:#ffdc7d;fill-opacity:1;fill-rule:nonzero;stroke:none"
         id="path106" /><path
         d="m 25978.7,10000 h 76.3 V 8568.7 h -76.3 V 10000"
         style="fill:#ffd989;fill-opacity:1;fill-rule:nonzero;stroke:none"
         id="path108" /><path
         d="m 10039.9,2080.7 h -154.74 v 12712.2 h 154.74 V 2080.7"
         style="fill:#ffffff;fill-opacity:1;fill-rule:nonzero;stroke:none"
         id="path110" /><path
         d="m 16829.8,2473 h -154.7 v 12712.2 h 154.7 V 2473"
         style="fill:#ffffff;fill-opacity:1;fill-rule:nonzero;stroke:none"
         id="path112" /><g
         id="g114"><g
           id="g116"
           clip-path="url(#clipPath120)"><path
             d="m 15500,14439.4 h -4531.4 v 480.9 H 15500 v -480.9"
             style="fill:url(#linearGradient126);fill-opacity:1;fill-rule:nonzero;stroke:none"
             id="path128" /></g></g><path
         d="m 12222.1,16572.3 -388.1,168.6 c -31.8,13.8 -46.4,50.9 -32.6,82.7 13.9,31.8 50.9,46.4 82.7,32.6 l 274.4,-119.3 198.2,439.2 c 14.3,31.6 51.5,45.7 83.1,31.4 31.6,-14.3 45.7,-51.5 31.5,-83.1 l -249.2,-552.1"
         style="fill:#ffdc7d;fill-opacity:1;fill-rule:nonzero;stroke:none"
         id="path130" /><path
         d="m 11816.4,17407.2 c -306.8,-215.5 -381,-640.4 -165.4,-947.2 215.5,-306.7 640.4,-380.9 947.2,-165.4 306.7,215.6 380.9,640.5 165.4,947.2 -215.6,306.8 -640.5,381 -947.2,165.4 z m 846.9,-1205.3 c -357.8,-251.5 -853.6,-164.9 -1105,193 -251.5,357.8 -165,853.6 192.9,1105 357.9,251.5 853.6,164.9 1105.1,-192.9 251.5,-357.9 164.9,-853.6 -193,-1105.1"
         style="fill:#ffdc7d;fill-opacity:1;fill-rule:nonzero;stroke:none"
         id="path132" /><path
         d="m 19564.9,6909.3 c 0,0 -76.6,30.4 -82.1,78.7 -4.7,41.1 -38.8,92.1 -49.2,107.8 -14,21 -34.9,101.2 -59.5,84.1 -24.5,-17.1 28.5,-133.7 35.1,-160.2 6.6,-26.6 -98,30 -124.1,24.9 -26.2,-5.1 -97.4,-188.4 -21.8,-218.8 75.7,-30.3 173.1,-11 185.6,-19.1 12.4,-8 54.3,-24.3 54.3,-24.3 l 61.7,126.9"
         style="fill:#eea886;fill-opacity:1;fill-rule:nonzero;stroke:none"
         id="path134" /><path
         d="m 21553.8,2014 c 0,0 53.2,-98.4 88,-137.4 34.8,-39.1 167.9,-108.9 168.6,-224.9 0.8,-125.9 -224.4,-90.9 -312.5,-86.3 -88.1,4.6 -94.8,71.8 -131.9,143 -37.1,71.2 -74.5,59.2 -81.4,116.6 -7,57.5 35.9,189 35.9,189 h 233.3"
         style="fill:#202338;fill-opacity:1;fill-rule:nonzero;stroke:none"
         id="path136" /><path
         d="m 20212.7,2025.5 c 0,0 -108.5,-120.1 -218.8,-145.3 -110.2,-25.2 -187.3,-57.3 -188.1,-126.2 -0.8,-68.9 317.2,-114.4 443.3,-44.9 188.2,103.8 207.4,72.5 228.2,124.3 20.9,51.9 -25,190.5 -23.7,207 1.7,20.4 -240.9,-14.9 -240.9,-14.9"
         style="fill:#202338;fill-opacity:1;fill-rule:nonzero;stroke:none"
         id="path138" /><path
         d="m 20224.9,2083 c 0,0 -14.3,-56.3 -12.2,-57.5 2.1,-1.2 248.4,-30.3 240.9,14.9 -6,36.6 -14.6,76.4 -14.6,76.4 l -214.1,-33.8"
         style="fill:#81807e;fill-opacity:1;fill-rule:nonzero;stroke:none"
         id="path140" /><path
         d="m 21323.5,2052 c 0,0 -10.3,-53.7 -8.3,-55 2,-1.2 249.7,-45.1 248.3,-0.5 -1.1,35.4 -22.8,76.7 -22.8,76.7 l -217.2,-21.2"
         style="fill:#81807e;fill-opacity:1;fill-rule:nonzero;stroke:none"
         id="path142" /><path
         d="m 20448.8,5451.8 c 0,0 -89.6,-861.8 -136.1,-1156.9 -54.5,-345 -72.9,-630 -88.1,-808.6 -19.1,-224.6 -22.8,-1329.3 -36.2,-1395 -13.4,-65.7 296.6,-18.1 296.6,-18.1 0,0 152.5,1443.5 209.4,1682.6 53,222.7 249.6,1181.6 297.9,1120.8 48.3,-60.8 108.3,-1119 144.1,-1294.6 35.7,-175.7 144.6,-1550.8 144.6,-1550.8 0,0 246.7,-48.7 312.3,6.4 0,0 29.9,1185 7.1,1514.4 -8.7,125.5 148.4,1504.7 -53,2060 -106.5,293.4 -1098.6,-160.2 -1098.6,-160.2"
         style="fill:#292c47;fill-opacity:1;fill-rule:nonzero;stroke:none"
         id="path144" /><path
         d="m 22107.1,6395.9 c 52,-142.2 -425.3,-498.3 -365.9,-509.2 59.2,-10.9 56.7,-123.5 56.7,-123.5 0,0 449.6,391.5 440.3,506.8 -5.1,64.1 -357,995.1 -410.8,1033.6 -36.7,26.3 -266.8,118.6 -386.2,163.9 -55.2,21 -97.3,35.7 -105.9,36.2 -27.4,1.7 -364.1,-30.5 -364.1,-30.5 0,0 -48.3,-16.6 -97.6,-39.2 -84.2,-38.7 -215.5,-99.1 -309.7,-144 -30.5,-14.5 -68.5,-34.1 -100.2,-50.8 3.9,-114.4 10.6,-237.1 20.3,-368.2 0,0 17.6,-286.6 19.2,-575.9 15.1,-65.5 12.5,-217.7 12.5,-217.7 4.1,-144.4 -12,-292.7 -16.1,-375.5 -6.7,-130.2 -24.6,-315.7 -24.6,-315.7 l 163.8,-66.8 717.3,6.7 224.5,60.1 c 0,0 -13.3,576.8 -10,744.5 3.2,161.5 37.2,581.1 43.8,605.4 0,0 240.5,349.3 492.7,-340.2"
         style="fill:#dbd8e3;fill-opacity:1;fill-rule:nonzero;stroke:none"
         id="path146" /><path
         d="m 20496.7,5447.4 c 0,0 492.7,-41.9 924.2,0 v -141.6 c 0,0 -642.6,-61.4 -945.9,27 l 21.7,114.6"
         style="fill:#1d2033;fill-opacity:1;fill-rule:nonzero;stroke:none"
         id="path148" /><path
         d="m 20455.8,7241.3 c 3.8,-116.3 9.5,-241.1 19.4,-374.7 0,0 9.3,-326.3 28.1,-635.8 6.4,-44.3 9.6,-89.6 6,-136 -4.7,-60.5 -11.2,-126.6 -19.2,-195.5 0,-0.9 -0.1,-1.8 -0.2,-2.6 -1.9,-16.4 -3.9,-32.9 -5.9,-49.5 0,-0.3 -0.1,-0.4 -0.1,-0.7 -41.8,-344.8 -112.8,-740.4 -149.8,-860 -7.8,-25 19.1,-48.2 38.4,-66 l 134.7,-84.9 c 0,0 55.6,511.5 74,685.1 17.8,167.6 73.8,392.2 98.4,611.2 v 0 c 31.1,277.8 73.9,549.9 97,711.5 60.2,420.9 140.3,609.2 140.3,609.2 -38.3,-11.4 -461.1,-211.3 -461.1,-211.3"
         style="fill:#323657;fill-opacity:1;fill-rule:nonzero;stroke:none"
         id="path150" /><path
         d="m 22060.2,6432.7 c 58.4,-128.1 -370.4,-519.5 -365.3,-532.8 29.1,-77 140.7,-218 140.7,-218 0,0 664.1,713.3 655.3,801.1 -6.3,64 -563,774.8 -616.8,813.3 -31,22.3 -261,103.8 -373.8,148.3 -20.7,8.2 -87.9,33.5 -106.4,40.5 -23.9,-26.6 -192.1,-207.6 -250.4,-895.5 -9.8,-116 21.2,-361.5 41.9,-561.9 22.1,-213.9 46.6,-380.7 64.5,-559.5 35.4,-352.3 60.1,-632.6 60.1,-632.6 l 350.6,156.1 c 56.7,28.4 154.8,102.4 133.5,162.2 -81.1,227 -202.7,657.2 -202.8,856.4 0,0 92.7,665.5 123.7,772.7 0,0 279.8,-207 345.2,-350.3"
         style="fill:#323657;fill-opacity:1;fill-rule:nonzero;stroke:none"
         id="path152" /><path
         d="m 21304.2,7467.9 c 0,0 2.3,115.6 46.8,349.4 11.9,62.6 -363.4,-164.7 -363.4,-164.7 0,0 1.2,-21.9 1.9,-51.5 0.4,-15.6 0.7,-33.4 0.6,-51.2 -0.1,-6.3 -0.1,-12.5 -0.3,-18.7 -0.3,-16.5 -1.1,-32.4 -2.5,-45.8 -1.4,-13.9 -9.6,-38.4 -12.5,-45.1 -15.5,-35.7 203,-62.8 329.4,27.6"
         style="fill:#eea987;fill-opacity:1;fill-rule:nonzero;stroke:none"
         id="path154" /><path
         d="m 21069.9,7346.8 -62.2,-83.6 c 0,0 36.4,-48.8 101.2,-12.8 l -39,96.4"
         style="fill:#d44040;fill-opacity:1;fill-rule:nonzero;stroke:none"
         id="path156" /><path
         d="m 21024.3,7259.8 c 0,0 -235.9,-908.5 -187.3,-1615.6 l 79.4,-139.9 74.3,146.5 c 0,0 20.4,1265 85.1,1611.3 l -51.5,-2.3"
         style="fill:#d44040;fill-opacity:1;fill-rule:nonzero;stroke:none"
         id="path158" /><path
         d="m 21003.3,7424.7 66.6,-77.9 c 0,0 106.9,20.7 138.3,76.6 31.4,55.8 -204.9,1.3 -204.9,1.3"
         style="fill:#eea987;fill-opacity:1;fill-rule:nonzero;stroke:none"
         id="path160" /><path
         d="m 20988,7492.9 c 0,0 7.7,-59.4 81.9,-146.1 l -80.9,-108.7 -43.9,225.6 42.9,29.2"
         style="fill:#c4c1cc;fill-opacity:1;fill-rule:nonzero;stroke:none"
         id="path162" /><path
         d="m 21310.3,7549.5 c 0,0 -132.3,-159.9 -240.4,-202.7 l 50.3,-124.3 251.6,270.4 -61.5,56.6"
         style="fill:#c4c1cc;fill-opacity:1;fill-rule:nonzero;stroke:none"
         id="path164" /><path
         d="m 19366,6779.5 c 0,0 570.3,-619.5 704.9,-586.4 62.2,15.3 156.4,122.7 234.3,223.6 25.7,33.3 50.8,68.2 74.8,102.7 0.1,0.1 0.1,0.2 0.1,0.2 95.5,137.9 170.4,270.1 170.4,270.1 0,0 282.3,330.9 55.7,478.5 0,0 -95.5,9.6 -149.8,-30.5 -50.1,-37 -172.2,-269.9 -192,-313.1 -19.8,-43.1 -173.9,-347.6 -188.2,-356.6 -14.4,-9.1 -165.8,81.8 -246.6,136.2 -130.8,88 -295,241.4 -295,241.4 L 19366,6779.5"
         style="fill:#323657;fill-opacity:1;fill-rule:nonzero;stroke:none"
         id="path166" /><path
         d="m 20860,5265.1 h 230.4 v 174.8 H 20860 v -174.8"
         style="fill:#3a4066;fill-opacity:1;fill-rule:nonzero;stroke:none"
         id="path168" /><path
         d="m 20990.1,7549.9 c -0.1,-6.3 -0.1,-12.5 -0.3,-18.7 214.7,72.1 256.3,180.5 256.3,180.5 -67,-47.3 -256.6,-110.6 -256.6,-110.6 0.4,-15.6 0.7,-33.4 0.6,-51.2"
         style="fill:#a77860;fill-opacity:1;fill-rule:nonzero;stroke:none"
         id="path170" /><path
         d="m 21772.3,5902.3 c 0,0 -20.3,-17 -41.8,-16.8 -37.2,0.3 -79.5,40.7 -118.3,4 -38.9,-36.7 42.9,-192.8 72.4,-211.1 29.4,-18.3 96.4,14.6 168,101.2 71.7,86.6 -80.3,122.7 -80.3,122.7"
         style="fill:#eea886;fill-opacity:1;fill-rule:nonzero;stroke:none"
         id="path172" /><path
         d="m 21627,5899.9 c 0,0 -75.1,-25.8 -155.3,-64.9 -70.3,-34.3 -152.7,-86.7 -144.3,-104.5 12.8,-27 75.5,23.7 147.4,53 66.3,26.9 57.8,10.4 57.8,10.4 0,0 2.1,4.8 -64.3,-38.8 -71.5,-46.8 -146.3,-100.1 -139.7,-114.8 8.2,-18.3 10.8,-19.9 39.5,-7.1 -14.9,-10.9 -14.1,-16.6 -10.1,-23.4 20.5,-34.8 136.3,17.4 182.3,38.2 -35.2,-16.1 -59.3,-31.8 -33,-45.1 30.1,-15.1 190.5,66.3 250.7,89.9 65.8,25.7 -131,207.1 -131,207.1"
         style="fill:#eea886;fill-opacity:1;fill-rule:nonzero;stroke:none"
         id="path174" /><path
         d="m 21694.9,5899.9 c 0,0 16.3,-95.6 140.7,-218 0,0 285.2,314.7 336.1,373.6 l -223.1,129.5 -253.7,-285.1"
         style="fill:#323657;fill-opacity:1;fill-rule:nonzero;stroke:none"
         id="path176" /><path
         d="m 20897.1,8251 c 0,0 -115.8,-129.5 -81.5,-162.1 28.3,-27 -77.9,-155.9 -92.9,-177.5 -15.1,-21.6 49.6,-55.3 60.6,-74.2 10.9,-18.8 9.2,-218 64.5,-237.2 55.3,-19.2 331.9,8.6 418.8,64.3 86.8,55.7 221.8,368.7 208.3,517.5 -13.5,148.9 -374.3,295.2 -577.8,69.2"
         style="fill:#eea886;fill-opacity:1;fill-rule:nonzero;stroke:none"
         id="path178" /><path
         d="m 20873.4,8222.6 c 0,0 -43.6,180.2 133.6,263.8 177.2,83.6 401.4,-191 430.4,-206.3 29,-15.4 201.5,-69.3 39.4,-356.1 -139.1,-246.2 -152.4,-254.8 -152.4,-254.8 0,0 -20.2,166.8 -46.8,197.8 -41.5,48.4 -153.7,66 -153.7,66 0,0 85.8,126.7 8.5,166 -77.3,39.3 -168.7,134.6 -259,123.6"
         style="fill:#323657;fill-opacity:1;fill-rule:nonzero;stroke:none"
         id="path180" /><path
         d="m 21230.3,7991.9 c 11.8,17.3 54.8,93.9 113.7,28.8 59,-65 -92.3,-192.5 -105.1,-191.5 -12.7,0.9 -107.8,16.4 -8.6,162.7"
         style="fill:#eea886;fill-opacity:1;fill-rule:nonzero;stroke:none"
         id="path182" /><path
         d="m 19034.2,6266.4 c 0,0 -34.5,-135.4 -39.2,-155.8 -4.6,-20.4 -217,35.8 -217,35.8 l 0.2,165.6 c 0,0 231.1,-23.3 256,-45.6"
         style="fill:#666fb3;fill-opacity:1;fill-rule:nonzero;stroke:none"
         id="path184" /><path
         d="m 18999.2,6127.9 c 0,0 59.5,-90.3 121.7,-133.6 62.3,-43.2 302.5,-99.2 337.6,-140.8 25.3,-30.1 60.6,-143.8 -324.9,-91.9 -273.9,36.9 -409,27.6 -433.7,75.3 -24.6,47.8 78.1,324.3 78.1,324.3 0,0 58.6,-31.9 221.2,-33.3"
         style="fill:#2d314f;fill-opacity:1;fill-rule:nonzero;stroke:none"
         id="path186" /><path
         d="m 18951.3,1027.2 897.3,9224.6 -97,9.4 -897.3,-9224.6 97,-9.4"
         style="fill:#b8b8b8;fill-opacity:1;fill-rule:nonzero;stroke:none"
         id="path188" /><path
         d="m 17382.7,1179.4 897.3,9224.6 -97,9.5 -897.3,-9224.7 97,-9.4"
         style="fill:#b8b8b8;fill-opacity:1;fill-rule:nonzero;stroke:none"
         id="path190" /><path
         d="m 19777.7,10027.5 9.4,97 -1568.6,152.2 -9.4,-96.9 1568.6,-152.3"
         style="fill:#b8b8b8;fill-opacity:1;fill-rule:nonzero;stroke:none"
         id="path192" /><path
         d="m 19706.9,9298.1 9.4,97 -1568.6,152.2 -9.4,-97 1568.6,-152.2"
         style="fill:#b8b8b8;fill-opacity:1;fill-rule:nonzero;stroke:none"
         id="path194" /><path
         d="m 19636.1,8568.7 9.4,97 -1568.6,152.2 -9.4,-97 1568.6,-152.2"
         style="fill:#b8b8b8;fill-opacity:1;fill-rule:nonzero;stroke:none"
         id="path196" /><path
         d="m 19565.3,7839.3 9.4,97 -1568.6,152.2 -9.4,-97 1568.6,-152.2"
         style="fill:#b8b8b8;fill-opacity:1;fill-rule:nonzero;stroke:none"
         id="path198" /><path
         d="m 19494.6,7109.9 9.4,97 -1568.7,152.2 -9.4,-97 1568.7,-152.2"
         style="fill:#b8b8b8;fill-opacity:1;fill-rule:nonzero;stroke:none"
         id="path200" /><path
         d="m 19423.8,6380.5 9.4,96.9 -1568.6,152.3 -9.5,-97 1568.7,-152.2"
         style="fill:#b8b8b8;fill-opacity:1;fill-rule:nonzero;stroke:none"
         id="path202" /><path
         d="m 19353,5651.1 9.4,96.9 -1568.6,152.3 -9.4,-97 1568.6,-152.2"
         style="fill:#b8b8b8;fill-opacity:1;fill-rule:nonzero;stroke:none"
         id="path204" /><path
         d="m 19282.2,4921.6 9.4,97 -1568.6,152.2 -9.4,-96.9 1568.6,-152.3"
         style="fill:#b8b8b8;fill-opacity:1;fill-rule:nonzero;stroke:none"
         id="path206" /><path
         d="m 19211.4,4192.2 9.4,97 -1568.6,152.2 -9.4,-96.9 1568.6,-152.3"
         style="fill:#b8b8b8;fill-opacity:1;fill-rule:nonzero;stroke:none"
         id="path208" /><path
         d="m 19140.6,3462.8 9.4,97 -1568.6,152.2 -9.4,-96.9 1568.6,-152.3"
         style="fill:#b8b8b8;fill-opacity:1;fill-rule:nonzero;stroke:none"
         id="path210" /><path
         d="m 19069.8,2733.4 9.4,97 -1568.6,152.2 -9.4,-97 1568.6,-152.2"
         style="fill:#b8b8b8;fill-opacity:1;fill-rule:nonzero;stroke:none"
         id="path212" /><path
         d="m 18999,2004 9.4,97 -1568.6,152.2 -9.4,-97 L 18999,2004"
         style="fill:#b8b8b8;fill-opacity:1;fill-rule:nonzero;stroke:none"
         id="path214" /><path
         d="m 18928.2,1274.6 9.5,97 -1568.7,152.2 -9.4,-97 1568.6,-152.2"
         style="fill:#b8b8b8;fill-opacity:1;fill-rule:nonzero;stroke:none"
         id="path216" /><path
         d="m 21109.8,11540.4 c 0,0 -20,-24.9 -34.1,-31.4 0,0 -26.5,-10 -44.9,-18.3 -5.8,-2.6 -10.9,-5.1 -13.9,-7 -12.9,-7.9 -38.8,-29.3 -75.1,-39.7 -36.3,-10.5 -200.3,-47.8 -200.3,-47.8 l -38.1,97.3 -27.4,78.6 c 0,0 151.8,196.7 184.5,210.4 3.2,1.3 6.4,2.5 9.5,3.3 28.8,8.9 53.9,3.4 69.6,6.3 5.7,1.1 63.6,7.6 76.1,-4.5 17.4,-16.7 22.6,-35.4 19.6,-51.7 0,0 32.6,-34.2 35,-66 0,0 31.1,-30.7 22.8,-71 0,0 28,-34.7 16.7,-58.5"
         style="fill:#eea886;fill-opacity:1;fill-rule:nonzero;stroke:none"
         id="path218" /><path
         d="m 19351.9,10264.3 c 37.9,24.4 86.9,57.5 256.5,142.3 315.9,158.1 705.9,444.5 780.1,485.9 114,63.7 474.1,503.7 474.1,503.7 -18.5,66.3 -189.3,199.3 -189.3,199.3 0,0 -546,-517.2 -665.4,-580.8 -102.6,-54.8 -609.5,-110.1 -749.1,-124.4 -22.6,-2.4 -35.6,-3.7 -35.6,-3.7 -145.9,-198.8 47.2,-674.7 128.7,-622.3"
         style="fill:#4ba2f4;fill-opacity:1;fill-rule:nonzero;stroke:none"
         id="path220" /><path
         d="m 19296.2,9117.8 c 0,0 154.5,-573.8 195.2,-778.9 35.5,-178.7 106.9,-654.7 117,-767.8 10.2,-113.2 -456.1,-1208.5 -504.6,-1406.3 L 18679,6233 c 0,0 448.2,1139.9 331.3,1393.3 -173.9,376.7 -196.5,365.4 -333.5,675.7 -137,310.4 -450.6,317.7 -534.8,893.6 0,0 1040.1,104.8 1154.2,-77.8"
         style="fill:#2d314f;fill-opacity:1;fill-rule:nonzero;stroke:none"
         id="path222" /><path
         d="m 18540.8,11905.5 c 0,0 282,105.4 412.1,-109.4 130.1,-214.7 117.5,-644.6 -24.7,-697.4 -142.1,-52.9 -355.7,-25.2 -428.5,109.1 -72.8,134.4 -138.5,328.6 -135.4,458.4 3.2,129.8 102.4,201.8 176.5,239.3"
         style="fill:#eea886;fill-opacity:1;fill-rule:nonzero;stroke:none"
         id="path224" /><path
         d="m 18880.9,11111.9 c 0,0 -11.4,-74 7.4,-110.4 18.9,-36.4 -354.8,-37.4 -354.8,-37.4 0,0 -30.3,198.2 -87.8,365.5 -57.5,167.4 435.2,-217.7 435.2,-217.7"
         style="fill:#eea886;fill-opacity:1;fill-rule:nonzero;stroke:none"
         id="path226" /><path
         d="m 18445.7,11329.6 c 0,0 25.8,-42.5 131.1,-26 105.2,16.5 233.6,156.6 277.6,171.9 43.9,15.4 44.4,41.2 44.4,41.2 l 27.5,-40.2 46.6,-2.9 c 0,0 -42.5,125.3 21.7,176.3 64.2,51.1 -66.7,405.5 -404.2,287.5 0,0 -259.3,-71.4 -249.9,-218.9 9.4,-147.4 47.2,-315.4 105.2,-388.9"
         style="fill:#d88a51;fill-opacity:1;fill-rule:nonzero;stroke:none"
         id="path228" /><path
         d="m 18891.8,11570.4 c -5.9,24.7 -68.8,95.4 -92.9,19.7 -24.1,-75.7 36.4,-177.5 70.1,-168.8 33.7,8.8 37.7,86.4 22.8,149.1"
         style="fill:#eea886;fill-opacity:1;fill-rule:nonzero;stroke:none"
         id="path230" /><path
         d="m 17815.9,10033.4 c 3.1,-37 45.4,-77 74.2,-96.8 18.4,-12.7 40.5,-20.4 64.3,-21.2 l 16.8,-0.5 v 0 l 293.1,-10 c 0,0 217.9,704.3 -190.8,972.9 -12.7,-1.3 -285.9,-504.9 -257.6,-844.4"
         style="fill:#4ba2f4;fill-opacity:1;fill-rule:nonzero;stroke:none"
         id="path232" /><path
         d="m 18699.9,5836.9 c 24.7,-47.7 159.8,-38.4 433.7,-75.3 74.8,-10 133.8,-13.9 180.1,-13.3 l 15.9,164.8 c -80.1,27.9 -173.2,56.6 -208.7,81.2 -62.2,43.3 -121.7,133.6 -121.7,133.6 -162.6,1.4 -221.2,33.3 -221.2,33.3 0,0 -102.7,-276.5 -78.1,-324.3"
         style="fill:#2d314f;fill-opacity:1;fill-rule:nonzero;stroke:none"
         id="path234" /><path
         d="m 18881.1,11023 c 0,0 -230,53.5 -359.6,9.7 l -19.6,-18.1 c 0,0 -39.4,-75.5 108.9,-82 148.3,-6.5 381.5,-17.3 270.3,90.4"
         style="fill:#4ba2f4;fill-opacity:1;fill-rule:nonzero;stroke:none"
         id="path236" /><path
         d="m 17982.2,5633.1 c 0,0 -34.4,-135.4 -39.1,-155.8 -4.7,-20.4 -217,35.7 -217,35.7 l 0.2,165.7 c 0,0 231.1,-23.3 255.9,-45.6"
         style="fill:#666fb3;fill-opacity:1;fill-rule:nonzero;stroke:none"
         id="path238" /><path
         d="m 18142,9195.6 c 0,0 -77.4,-319.4 -100.3,-639.1 -21.2,-295.5 -59.8,-619.5 -90.4,-928.6 -34.2,-344.5 -131.7,-901.4 -136.8,-1085.7 -5,-184.3 -160.2,-989.7 -160.2,-989.7 l 396.8,-45.5 c 0,0 257.8,1423.2 318.7,1568.7 60.9,145.5 362.8,1182.7 372.9,1299.1 10.2,116.4 -600.7,820.8 -600.7,820.8"
         style="fill:#2d314f;fill-opacity:1;fill-rule:nonzero;stroke:none"
         id="path240" /><path
         d="m 17947.3,5494.5 c 0,0 59.4,-90.2 121.7,-133.5 62.2,-43.3 302.5,-99.2 337.5,-140.8 25.4,-30.1 60.6,-143.8 -324.9,-91.9 -273.9,36.9 -409,27.6 -433.6,75.3 -24.7,47.7 78.1,324.3 78.1,324.3 0,0 58.6,-31.9 221.2,-33.4"
         style="fill:#2d314f;fill-opacity:1;fill-rule:nonzero;stroke:none"
         id="path242" /><path
         d="m 19376.4,8401.1 c 33.8,4.8 -83.9,1012.2 -74.9,1075.4 6,42.1 5.1,369.5 2.6,573.6 l 36.8,206.5 c 20.6,14.9 48,32.2 80.9,51.1 51.2,29.6 115.3,63.3 186.6,98.9 -8.2,48.8 -14,87.2 -16.2,109.7 -17.8,181.4 -139.7,277.5 -208.8,318 -28.2,16.5 -47.5,23.7 -47.5,23.7 -26.3,11.2 -52.1,22 -77.1,32.3 -166.4,68.4 -377.7,132.7 -377.7,132.7 h -339.5 c 0,0 -258.5,-51.6 -412.5,-114.7 -19.8,-8.1 -38.3,-18.4 -55.6,-30.5 l 46.1,-968 c 0,-0.2 0,-0.4 0.1,-0.6 0,-0.3 0.1,-0.7 0.1,-1.3 20.8,-136.1 42.7,-296.8 50,-409.4 3,-46 -49.6,-292.9 -77.1,-519.6 l -96,-542.4 c 0,0 55.5,-224.7 1379.7,-35.4"
         style="fill:#4ba2f4;fill-opacity:1;fill-rule:nonzero;stroke:none"
         id="path244" /><path
         d="m 21509.3,16149.4 h -20.1 v 2108.4 h 20.1 v -2108.4"
         style="fill:#ffce55;fill-opacity:1;fill-rule:nonzero;stroke:none"
         id="path246" /><path
         d="m 22938.2,16149.4 h -20.1 v 2108.4 h 20.1 v -2108.4"
         style="fill:#ffce55;fill-opacity:1;fill-rule:nonzero;stroke:none"
         id="path248" /><path
         d="m 24367,16149.4 h -20.1 v 2108.4 h 20.1 v -2108.4"
         style="fill:#ffce55;fill-opacity:1;fill-rule:nonzero;stroke:none"
         id="path250" /><path
         d="m 25795.9,16149.4 h -20.1 v 2108.4 h 20.1 v -2108.4"
         style="fill:#ffce55;fill-opacity:1;fill-rule:nonzero;stroke:none"
         id="path252" /><path
         d="m 27224.8,16149.4 h -20.1 v 2108.4 h 20.1 v -2108.4"
         style="fill:#ffce55;fill-opacity:1;fill-rule:nonzero;stroke:none"
         id="path254" /><path
         d="m 21726.6,15951.2 h -227.4 v 73.3 h 227.4 v -73.3"
         style="fill:#ffce55;fill-opacity:1;fill-rule:nonzero;stroke:none"
         id="path256" /><path
         d="m 21841.5,18462.6 h -342.3 v 55 h 342.3 v -55"
         style="fill:#ffce55;fill-opacity:1;fill-rule:nonzero;stroke:none"
         id="path258" /><path
         d="m 21984.7,18361 h -485.5 v 55 h 485.5 v -55"
         style="fill:#ffce55;fill-opacity:1;fill-rule:nonzero;stroke:none"
         id="path260" /><path
         d="m 23314.5,18462.6 h -401.8 v 55 h 401.8 v -55"
         style="fill:#ffce55;fill-opacity:1;fill-rule:nonzero;stroke:none"
         id="path262" /><path
         d="m 23169.6,18361 h -256.9 v 55 h 256.9 v -55"
         style="fill:#ffce55;fill-opacity:1;fill-rule:nonzero;stroke:none"
         id="path264" /><path
         d="m 24616,18462.6 h -249 v 55 h 249 v -55"
         style="fill:#ffce55;fill-opacity:1;fill-rule:nonzero;stroke:none"
         id="path266" /><path
         d="M 24657.2,18361 H 24367 v 55 h 290.2 v -55"
         style="fill:#ffce55;fill-opacity:1;fill-rule:nonzero;stroke:none"
         id="path268" /><path
         d="m 26158.6,18462.6 h -362.7 v 55 h 362.7 v -55"
         style="fill:#ffce55;fill-opacity:1;fill-rule:nonzero;stroke:none"
         id="path270" /><path
         d="m 26086.1,18361 h -290.2 v 55 h 290.2 v -55"
         style="fill:#ffce55;fill-opacity:1;fill-rule:nonzero;stroke:none"
         id="path272" /><path
         d="m 27431.4,18462.6 h -216.7 v 55 h 216.7 v -55"
         style="fill:#ffce55;fill-opacity:1;fill-rule:nonzero;stroke:none"
         id="path274" /><path
         d="m 27388.1,18361 h -173.4 v 55 h 173.4 v -55"
         style="fill:#ffce55;fill-opacity:1;fill-rule:nonzero;stroke:none"
         id="path276" /><path
         d="m 23155.4,15951.2 h -227.3 v 73.3 h 227.3 v -73.3"
         style="fill:#ffce55;fill-opacity:1;fill-rule:nonzero;stroke:none"
         id="path278" /><path
         d="M 24594.4,15951.2 H 24367 v 73.3 h 227.4 v -73.3"
         style="fill:#ffce55;fill-opacity:1;fill-rule:nonzero;stroke:none"
         id="path280" /><path
         d="m 26023.2,15951.2 h -227.3 v 73.3 h 227.3 v -73.3"
         style="fill:#ffce55;fill-opacity:1;fill-rule:nonzero;stroke:none"
         id="path282" /><path
         d="m 27452.1,15951.2 h -227.3 v 73.3 h 227.3 v -73.3"
         style="fill:#ffce55;fill-opacity:1;fill-rule:nonzero;stroke:none"
         id="path284" /><path
         d="m 26719.6,16775.8 c -445.7,0 -833.1,192.7 -1237,393.6 -498.6,247.9 -1014.2,504.3 -1701.2,434.1 -438.6,-44.8 -714,-223.5 -956.9,-381.1 -220,-142.7 -427.9,-268.2 -709.6,-278.9 -455.1,-17.3 -613,176.8 -615.7,188.6 v 124.6 0 0 c 0.6,-2.1 100,-220 615.3,-217.5 253.7,1.3 441,122.8 657.9,263.5 252,163.6 537.6,348.9 999.3,396.1 714.5,73 1242.7,-189.7 1753.5,-443.7 534.5,-265.8 1044.6,-515 1689.5,-298.8 v -102.4 c -183.8,-61.7 -330.8,-78 -495.1,-78.1"
         style="fill:#ffce55;fill-opacity:1;fill-rule:nonzero;stroke:none"
         id="path286" /><path
         d="m 24044.4,16799.7 c -329,0 -589.9,221.2 -845.3,437.8 -193.7,164.2 -394.6,332.1 -626.6,414.9 -707.9,252.8 -1070,-208.7 -1073.3,-212.8 v 140.4 c 3.9,4.8 68.5,88.7 255.4,168.8 170.1,72.9 455.6,131.1 849.4,-5.9 249.5,-86.8 456.7,-262.5 657,-432.3 406.5,-344.7 757.5,-642.3 1367.1,-176.1 461.8,353.1 897,689.6 1325.3,812.5 418.9,120.2 855.6,32.2 1264.3,-376.6 l -3,-127.5 c -868.3,872.2 -1607.6,319.6 -2528.4,-384.5 -243.9,-186.5 -454,-258.7 -641.9,-258.7"
         style="fill:#ffce55;fill-opacity:1;fill-rule:nonzero;stroke:none"
         id="path288" /><path
         d="m 18132.2,16905.6 c -240.9,-3.3 -434.1,-202 -430.8,-442.9 2,-146.8 77.1,-281.9 200.7,-361.5 l 4.7,-3.1 2.4,-5 c 33.7,-71.3 77.5,-178.8 94.7,-285.9 l 0.1,-1.4 c 3.3,-39.8 24.9,-75.9 60.9,-101.5 36.9,-26.4 84.3,-38.7 133.4,-34.6 100.2,8.3 176,82.9 169.1,166.2 v 0.8 0.7 c -0.6,83.4 13.7,179.1 42.5,284.5 l 1.7,6 4.7,3.9 c 102.8,84.9 160.7,210 158.9,343 -3.4,240.9 -202.1,434.2 -443,430.8 z m 51.3,-1275.6 c -51.9,-0.7 -101.4,14.1 -141.3,42.6 -45.1,32.3 -72.4,78.1 -76.9,129.2 -16.1,99.8 -56.8,200.9 -89,269.7 -131.8,87.1 -211.6,232.7 -213.8,390.6 -3.7,262.4 206.8,478.8 469.2,482.5 262.4,3.6 478.8,-206.9 482.4,-469.2 2,-142.9 -59.2,-277.2 -168.2,-369.6 -26.7,-99.4 -40.1,-189.3 -39.6,-267.4 8.2,-104.5 -83.5,-197.5 -204.8,-207.5 -6,-0.5 -12,-0.8 -18,-0.9"
         style="fill:#ffdc7d;fill-opacity:1;fill-rule:nonzero;stroke:none"
         id="path290" /><path
         d="m 18081.1,15783.7 -108.5,511 115.7,-79.5 60.2,80.2 63.9,-64.4 93,94.3 -14.7,-522.8 -39,1.1 12,424 -51.2,-51.9 -59.9,60.3 -55.5,-74 -66.1,45.4 88.2,-415.6 -38.1,-8.1"
         style="fill:#ffdc7d;fill-opacity:1;fill-rule:nonzero;stroke:none"
         id="path292" /><path
         d="m 18376.7,15556.6 -336.4,-28 -11.2,135.6 336.3,27.9 11.3,-135.5"
         style="fill:#ffdc7d;fill-opacity:1;fill-rule:nonzero;stroke:none"
         id="path294" /><path
         d="m 18426.2,15616.9 -444.6,-37 -18.1,218.3 444.5,36.9 18.2,-218.2"
         style="fill:#ffdc7d;fill-opacity:1;fill-rule:nonzero;stroke:none"
         id="path296" /><path
         d="M 6806.17,1506.3 6652.43,5366 h 2659.11 l 153.79,-3860.9 30.55,1.2 -154.96,3890.3 H 6620.63 l 155,-3891.5 30.54,1.2"
         style="fill:#004e8c;fill-opacity:1;fill-rule:nonzero;stroke:none"
         id="path298" /><path
         d="m 6680.36,5366 h 2659.12 l -153.75,-3859.7 30.54,-1.2 155.02,3891.5 H 6651 l -154.96,-3890.3 30.53,-1.2 153.79,3860.9"
         style="fill:#004e8c;fill-opacity:1;fill-rule:nonzero;stroke:none"
         id="path300" /><path
         d="M 9201.01,2760.8 H 6511.3 l 154.37,3875.6 H 9355.38 L 9201.01,2760.8"
         style="fill:#c26c23;fill-opacity:1;fill-rule:nonzero;stroke:none"
         id="path302" /><g
         id="g304"><g
           id="g306"
           clip-path="url(#clipPath310)"><path
             d="m 6866.77,2760.8 h 2689.7 l -154.38,3875.6 h -2689.7 l 154.38,-3875.6"
             style="fill:url(#linearGradient316);fill-opacity:1;fill-rule:nonzero;stroke:none"
             id="path318" /></g></g><path
         d="M 9123.4,4260.9 H 8988.22 V 3232 h 135.18 v 1028.9"
         style="fill:#e3f2ff;fill-opacity:1;fill-rule:nonzero;stroke:none"
         id="path320" /><path
         d="M 8856.3,4145.6 H 8721.12 V 3232 h 135.18 v 913.6"
         style="fill:#e3f2ff;fill-opacity:1;fill-rule:nonzero;stroke:none"
         id="path322" /><path
         d="M 8566.12,3995.6 H 8430.94 V 3232 h 135.18 v 763.6"
         style="fill:#e3f2ff;fill-opacity:1;fill-rule:nonzero;stroke:none"
         id="path324" /><path
         d="M 8268.11,3806.5 H 8132.92 V 3232 h 135.19 v 574.5"
         style="fill:#e3f2ff;fill-opacity:1;fill-rule:nonzero;stroke:none"
         id="path326" /><path
         d="m 7326.24,3928.4 -29.31,10.4 254.95,715.2 552.84,146.2 198.67,785 426.63,188.3 95.55,610.3 30.73,-4.8 -98.17,-627.1 -428.31,-189.1 -199.44,-788 -554.71,-146.7 -249.43,-699.7"
         style="fill:#e3f2ff;fill-opacity:1;fill-rule:nonzero;stroke:none"
         id="path328" /><path
         d="m 8181.78,4840 c 29,-35.4 23.75,-87.7 -11.73,-116.7 -35.48,-29 -87.75,-23.7 -116.74,11.7 -28.99,35.5 -23.74,87.8 11.73,116.8 35.48,29 87.74,23.7 116.74,-11.8"
         style="fill:#ffb255;fill-opacity:1;fill-rule:nonzero;stroke:none"
         id="path330" /><path
         d="m 8074.88,4839.7 c -28.77,-23.5 -33.04,-66 -9.53,-94.8 23.53,-28.8 66.08,-33.1 94.86,-9.5 28.77,23.5 33.05,66 9.53,94.8 -23.53,28.8 -66.08,33.1 -94.86,9.5 z m 105.01,-128.4 c -42.06,-34.4 -104.25,-28.2 -138.62,13.9 -34.39,42.1 -28.14,104.2 13.93,138.6 42.06,34.4 104.24,28.1 138.63,-13.9 34.37,-42.1 28.12,-104.3 -13.94,-138.6"
         style="fill:#e3f2ff;fill-opacity:1;fill-rule:nonzero;stroke:none"
         id="path332" /><path
         d="m 8383.09,5621.8 c 28.99,-35.5 23.74,-87.8 -11.74,-116.8 -35.47,-29 -87.74,-23.7 -116.74,11.8 -28.99,35.4 -23.74,87.7 11.74,116.7 35.47,29 87.73,23.7 116.74,-11.7"
         style="fill:#ffb555;fill-opacity:1;fill-rule:nonzero;stroke:none"
         id="path334" /><path
         d="m 8276.19,5621.5 c -28.78,-23.6 -33.06,-66.1 -9.53,-94.9 23.52,-28.8 66.06,-33 94.84,-9.5 28.78,23.5 33.06,66 9.54,94.8 -23.52,28.8 -66.07,33.1 -94.85,9.6 z m 105,-128.5 c -42.06,-34.4 -104.25,-28.1 -138.62,13.9 -34.39,42.1 -28.14,104.3 13.93,138.6 42.06,34.4 104.24,28.2 138.63,-13.9 34.38,-42 28.13,-104.2 -13.94,-138.6"
         style="fill:#e3f2ff;fill-opacity:1;fill-rule:nonzero;stroke:none"
         id="path336" /><path
         d="m 8803.14,5815.4 c 29,-35.4 23.74,-87.7 -11.73,-116.7 -35.47,-29 -87.74,-23.7 -116.74,11.7 -29,35.5 -23.74,87.8 11.74,116.8 35.47,29 87.74,23.7 116.73,-11.8"
         style="fill:#ffb555;fill-opacity:1;fill-rule:nonzero;stroke:none"
         id="path338" /><path
         d="m 8696.25,5815.1 c -28.78,-23.5 -33.06,-66.1 -9.53,-94.8 23.51,-28.8 66.07,-33.1 94.84,-9.6 28.78,23.6 33.06,66.1 9.54,94.9 -23.52,28.8 -66.07,33 -94.85,9.5 z m 105.01,-128.4 c -42.06,-34.4 -104.25,-28.2 -138.63,13.9 -34.38,42 -28.13,104.2 13.93,138.6 42.06,34.4 104.25,28.1 138.63,-13.9 34.38,-42.1 28.13,-104.3 -13.93,-138.6"
         style="fill:#e3f2ff;fill-opacity:1;fill-rule:nonzero;stroke:none"
         id="path340" /><path
         d="m 7631.09,4686.5 c 29.01,-35.5 23.75,-87.7 -11.72,-116.7 -35.48,-29 -87.75,-23.8 -116.74,11.7 -29,35.5 -23.74,87.7 11.73,116.7 35.47,29 87.74,23.8 116.73,-11.7"
         style="fill:#ffb455;fill-opacity:1;fill-rule:nonzero;stroke:none"
         id="path342" /><path
         d="m 7524.2,4686.2 c -28.78,-23.5 -33.05,-66.1 -9.53,-94.9 23.52,-28.7 66.07,-33 94.85,-9.5 28.78,23.5 33.06,66.1 9.53,94.9 -23.52,28.7 -66.07,33 -94.85,9.5 z m 105.01,-128.5 c -42.06,-34.4 -104.25,-28.1 -138.62,14 -34.39,42 -28.14,104.2 13.92,138.6 42.06,34.4 104.25,28.1 138.63,-13.9 34.38,-42.1 28.13,-104.3 -13.93,-138.7"
         style="fill:#e3f2ff;fill-opacity:1;fill-rule:nonzero;stroke:none"
         id="path344" /><path
         d="m 7839.63,5465.1 h -711.47 c -32.89,0 -59.55,26.7 -59.55,59.6 v 52.9 c 0,32.9 26.66,59.6 59.55,59.6 h 711.47 c 32.89,0 59.55,-26.7 59.55,-59.6 v -52.9 c 0,-32.9 -26.66,-59.6 -59.55,-59.6"
         style="fill:#ebebeb;fill-opacity:1;fill-rule:nonzero;stroke:none"
         id="path346" /><path
         d="m 7839.63,5765.9 h -711.47 c -32.89,0 -59.55,26.7 -59.55,59.6 v 53 c 0,32.8 26.66,59.5 59.55,59.5 h 711.47 c 32.89,0 59.55,-26.7 59.55,-59.5 v -53 c 0,-32.9 -26.66,-59.6 -59.55,-59.6"
         style="fill:#ebebeb;fill-opacity:1;fill-rule:nonzero;stroke:none"
         id="path348" /><path
         d="m 5458.56,8619.5 c 0,0 227.89,-111.5 171.54,-414.7 -56.34,-303.2 -81.27,-344.1 -18.25,-462.6 63.02,-118.5 137.39,-623.9 80.67,-719.7 -56.72,-95.8 -702.1,421 -791.59,854.6 -89.49,433.6 56.72,626.4 108.4,698.3 51.69,71.8 248.05,146.2 449.23,44.1"
         style="fill:#0e2d3d;fill-opacity:1;fill-rule:nonzero;stroke:none"
         id="path350" /><path
         d="m 6601.17,8989.4 h -729.1 v -639.8 l 111.31,111.4 h 617.79 v 528.4"
         style="fill:#ffcb55;fill-opacity:1;fill-rule:nonzero;stroke:none"
         id="path352" /><path
         d="m 5372.58,1581.9 h 51.64 v 243.6 c 0,0 101.31,-67.5 164.87,-160.9 63.57,-93.3 150.97,-85.4 284.05,-79.4 133.09,5.9 127.13,59.6 115.21,135 -11.91,75.5 -146.98,99.4 -190.68,111.3 -43.71,11.9 -142.91,182.8 -174.81,224.4 -43.5,56.8 -66.54,111.3 -66.54,111.3 0,0 -24.84,101.3 -147.99,0 -123.15,-101.3 -87.4,-296 -73.5,-313.9 13.91,-17.9 37.75,-271.4 37.75,-271.4"
         style="fill:#163342;fill-opacity:1;fill-rule:nonzero;stroke:none"
         id="path354" /><path
         d="m 5632.79,1831.5 c 45.69,-29.8 164.88,0 164.88,0 -33.77,43.7 -241.35,335.7 -241.35,335.7 -126.13,73.5 -175.99,-27.7 -175.99,-27.7 51.46,-15.7 206.78,-278.2 252.46,-308"
         style="fill:#eea886;fill-opacity:1;fill-rule:nonzero;stroke:none"
         id="path356" /><path
         d="m 6960.95,6325 c 0,0 82.67,-15.9 110.93,23 24.03,33 78.94,58.4 95.83,66.2 22.6,10.5 79.97,68.5 93.46,40.2 13.51,-28.4 -89.96,-100.2 -108.65,-119.6 -18.68,-19.4 101.46,-28 122.19,-46.9 20.73,-18.8 -4.77,-217 -86.54,-201.6 -81.77,15.4 -158.95,85.9 -173.87,85.8 -14.92,-0.2 -59.94,8.8 -59.94,8.8 l 6.59,144.1"
         style="fill:#eea886;fill-opacity:1;fill-rule:nonzero;stroke:none"
         id="path358" /><path
         d="m 7256.46,6296 c 0,0 247.22,-63.8 260.13,-81.9 12.92,-18 8.66,-31.2 -14.7,-26.2 -23.35,5 -240.64,54.8 -240.64,54.8 0,0 279.89,-124.8 293.7,-137.3 8.1,-7.3 1.37,-33.3 -11.39,-31.8 -12.75,1.6 -297.23,109.4 -297.23,109.4 0,0 261.12,-117 269.57,-130.9 7.38,-12.1 -4.78,-34.5 -24.74,-27.1 -19.96,7.3 -268.45,102.2 -268.45,102.2 0,0 184.69,-97.1 184.92,-113 0.13,-9.8 -4.62,-32.6 -51.51,-6 -46.87,26.5 -164.03,77.5 -164.03,77.5 l 64.37,210.3"
         style="fill:#eea886;fill-opacity:1;fill-rule:nonzero;stroke:none"
         id="path360" /><path
         d="m 4703.37,1565.3 h 31.78 v 178.8 c 0,0 56.52,-58.2 82.34,-143.6 25.83,-85.4 118.28,-110.7 259.32,-106.8 141.03,4 143.01,59.7 131.1,143.1 -11.92,83.4 -131.1,127.1 -131.1,127.1 -53.64,47.7 -186.72,245.4 -186.72,245.4 0,0 -85.41,22.8 -152.44,-31.3 -67.03,-54.1 -46.19,-176.3 -44.21,-208.1 1.98,-31.8 9.93,-204.6 9.93,-204.6"
         style="fill:#163342;fill-opacity:1;fill-rule:nonzero;stroke:none"
         id="path362" /><path
         d="m 4800.7,5824.1 c 0,0 -168.05,-218.5 -213.64,-477.7 -45.59,-259.3 26.92,-1129.3 24.93,-1257.4 -1.98,-128.1 -121.16,-446.9 -97.32,-688.3 23.83,-241.3 117.9,-1442.5 117.9,-1442.5 l 257.52,51.1 c 0,0 -14.9,1224.6 0,1325.9 14.89,101.3 44.79,470.5 50.76,512.3 5.96,41.7 378.29,1137 378.29,1323.9 0,186.9 -113.22,957.6 -518.44,652.7"
         style="fill:#1d3b54;fill-opacity:1;fill-rule:nonzero;stroke:none"
         id="path364" /><path
         d="m 5644.91,5738.7 c 0,0 276.11,-1053.8 308.88,-1199.8 32.77,-146 80.25,-266.4 80.25,-328.4 0,-143.8 -53.43,-374.8 -53.43,-374.8 L 5630,2158.9 h -333.93 c 0,0 186.06,1006 191.06,1202.7 5.02,197.1 156.79,477.1 126.99,560.5 -29.79,83.5 -479.71,1045.9 -479.71,1045.9 0,0 -340.66,1076.6 510.5,770.7"
         style="fill:#1d3b54;fill-opacity:1;fill-rule:nonzero;stroke:none"
         id="path366" /><path
         d="m 5076.81,1763.9 -186.72,245.4 -152.44,-31.3 c 0,0 41.01,-109.8 115.11,-192.4 87.77,-97.9 224.05,-21.7 224.05,-21.7"
         style="fill:#eea886;fill-opacity:1;fill-rule:nonzero;stroke:none"
         id="path368" /><path
         d="m 5530.88,7529.4 c 0,0 113.83,-10.7 199.84,-102.9 86.02,-92.1 166.74,-239.1 189.27,-288.2 22.53,-49.2 338.31,-504.7 354.7,-514.9 16.37,-10.3 175.1,-63.3 280.28,-98.7 162.32,-54.6 487.66,-172.9 487.66,-172.9 l -64.61,-204.5 c 0,0 -611.79,200.1 -765,237.9 -187.35,46.1 -618.65,599.5 -618.65,599.5 0,0 -321.54,376.8 -63.49,544.7"
         style="fill:#285173;fill-opacity:1;fill-rule:nonzero;stroke:none"
         id="path370" /><path
         d="m 5332.23,7609.3 c 0,0 147.45,-69.6 198.65,-79.9 51.19,-10.2 249.84,-268.3 284.67,-362.5 34.81,-94.2 0,-235.5 -71.68,-401.4 -71.68,-165.9 -4.1,-221.1 -36.87,-387 -32.76,-165.9 -22.22,-786.5 -16.08,-878.6 6.14,-92.2 -958.58,-231.9 -1149.04,-64 0,0 128.94,559.3 281.6,719 33.01,34.5 29.52,264.5 6.99,321.9 -22.52,57.3 -276.47,485.3 -276.47,485.3 0,0 -18.65,434.2 92.16,520.2 96.25,74.8 358.59,101.4 405.69,117.8 47.1,16.4 184.12,23.5 280.38,9.2"
         style="fill:#ffbf55;fill-opacity:1;fill-rule:nonzero;stroke:none"
         id="path372" /><path
         d="m 5402.63,7779.5 c 0,0 -4.4,-40.6 -9.49,-95.5 -1.96,-21.7 -4.11,-45.7 -6.06,-70.2 -5.87,-73.6 -10.57,-152.5 -7.72,-192.9 0,0 -153.29,-153.6 -327.48,179.2 0,0 73.26,137.2 18.08,324 -55.17,186.9 332.67,-144.6 332.67,-144.6"
         style="fill:#eea886;fill-opacity:1;fill-rule:nonzero;stroke:none"
         id="path374" /><path
         d="m 5831.49,6704.4 c 0,0 36.89,245.3 -2.33,394.5 0,0 0,-128.3 -70.34,-310.5 l 72.67,-84"
         style="fill:#183c59;fill-opacity:1;fill-rule:nonzero;stroke:none"
         id="path376" /><path
         d="m 4934.13,7576.5 c 0,0 105.39,-311.3 394.78,-288.4 289.38,22.9 137.18,262.8 137.18,262.8 0,0 -72.13,41.4 -92.42,45.3 -20.3,3.9 -319.95,7.7 -319.95,7.7 l -119.59,-27.4"
         style="fill:#eea886;fill-opacity:1;fill-rule:nonzero;stroke:none"
         id="path378" /><path
         d="m 5466.09,7550.9 c 0,0 151.56,-419.2 151.56,-846.5 0,-427.3 12.21,-1123.4 65.13,-1343.2 52.91,-219.8 203.53,-899.6 203.53,-899.6 l 118.05,61 c 0,0 -283.87,1085 -305.3,1163.2 -21.42,78.2 16.28,904.7 36.63,973.9 20.36,69.2 106.93,377.2 93.47,462.7 -16.96,107.7 -117.77,267.1 -280.6,404.2 l -82.47,24.3"
         style="fill:#285173;fill-opacity:1;fill-rule:nonzero;stroke:none"
         id="path380" /><path
         d="m 4991.31,7589.6 c 0,0 94.21,-301.7 141.94,-688 47.74,-386.3 -146.54,-2179.5 -276.8,-2586.6 l -504.75,81.4 c 0,0 108.65,1267.6 256.14,1498.2 147.5,230.7 194.44,434.8 35.21,916.2 -159.22,481.5 69.8,719.9 69.8,719.9 0,0 234.2,53.9 278.46,58.9"
         style="fill:#285173;fill-opacity:1;fill-rule:nonzero;stroke:none"
         id="path382" /><path
         d="m 5535.86,6310.4 -612.01,-1060 -680.36,392.8 585.43,1075.4 706.94,-408.2"
         style="fill:#616161;fill-opacity:1;fill-rule:nonzero;stroke:none"
         id="path384" /><path
         d="m 5462.09,6273.9 -543.55,-941.4 -604.25,348.9 519.94,955 627.86,-362.5"
         style="fill:#e0cec7;fill-opacity:1;fill-rule:nonzero;stroke:none"
         id="path386" /><path
         d="m 5261.56,6358.5 38.16,66.1 -244.29,141 -47.7,-60.5 253.83,-146.6"
         style="fill:#616161;fill-opacity:1;fill-rule:nonzero;stroke:none"
         id="path388" /><path
         d="m 5232.4,5606.4 c 0,0 -27.83,-0.1 -40.02,5.8 0,0 -21.37,12.4 -37.11,20.3 -5,2.5 -9.4,4.5 -12.39,5.5 -12.48,4.4 -41.17,10.1 -68.23,28.9 -27.04,18.7 -122.88,129.7 -122.88,129.7 l 45.26,68.8 33.19,70.5 c 0,0 201.22,-13 228.44,-27.6 2.66,-1.4 5.23,-2.9 7.52,-4.5 21.86,-14.6 31.99,-34.6 42.6,-43.6 3.87,-3.3 40.15,-38.8 38.88,-53.9 -1.73,-21 -11.44,-34.8 -24.11,-41.7 0,0 -5.19,-41 -25.38,-60.1 0,0 -3.58,-37.9 -35.45,-54.5 0,0 -7.94,-38.1 -30.32,-43.6"
         style="fill:#eea886;fill-opacity:1;fill-rule:nonzero;stroke:none"
         id="path390" /><path
         d="m 4817.68,7529.4 c 0,0 -185.85,53.3 -292.35,-151.5 -106.49,-204.8 -105.97,-292.2 -120.2,-392.2 -13.44,-94.4 -74.11,-352.2 -80.26,-378.9 -6.14,-26.6 -143.54,-344.1 -80.53,-455 63.34,-111.6 706.61,-439.9 702.52,-464.4 -4.11,-24.6 111.4,248.2 111.4,248.2 0,0 -260.29,145.1 -302.92,189.7 -69.25,72.6 -215.32,150.8 -185.31,240.8 35.25,105.7 141.15,462.4 165.72,514.7 24.58,52.2 238.6,582.1 81.93,648.6"
         style="fill:#285173;fill-opacity:1;fill-rule:nonzero;stroke:none"
         id="path392" /><path
         d="m 5425.52,8585.9 c 0,0 330.88,-104 151.26,-675 -179.62,-571 -631.52,66.2 -584.24,414.1 47.26,347.9 432.98,260.9 432.98,260.9"
         style="fill:#eea987;fill-opacity:1;fill-rule:nonzero;stroke:none"
         id="path394" /><path
         d="m 5610.59,8252.7 c 0,0 -164.41,-161.3 -439.55,-181.5 0,0 -105.75,-124 -113.87,-172.6 0,0 -245.49,418.4 56.28,669.2 301.76,250.9 608.06,-211.7 497.14,-315.1"
         style="fill:#0e2d3d;fill-opacity:1;fill-rule:nonzero;stroke:none"
         id="path396" /><path
         d="m 5174.35,8059.8 c -2.14,41.6 -27.74,136.2 -89.51,109.7 -61.75,-26.5 3.79,-219.1 44.75,-207.2 0,0 49.79,-0.8 44.76,97.5"
         style="fill:#eea987;fill-opacity:1;fill-rule:nonzero;stroke:none"
         id="path398" /><path
         d="m 5393.14,7684 c -1.96,-21.7 -4.11,-45.7 -6.06,-70.2 0,0 -146.04,8.7 -243.65,225.9 6.36,-9.5 113.36,-166.7 249.71,-155.7"
         style="fill:#a77860;fill-opacity:1;fill-rule:nonzero;stroke:none"
         id="path400" /><path
         d="m 25340.2,5025.2 h 1139.7 v -67.7 h -1139.7 v 67.7"
         style="fill:#e2d2ca;fill-opacity:1;fill-rule:nonzero;stroke:none"
         id="path402" /><path
         d="m 26327.2,1704.6 h -99.9 v 3076.8 h 99.9 V 1704.6"
         style="fill:#706865;fill-opacity:1;fill-rule:nonzero;stroke:none"
         id="path404" /><path
         d="m 24726.4,5044.4 h 792.2 v -96.7 h -792.2 v 96.7"
         style="fill:#ccbdb7;fill-opacity:1;fill-rule:nonzero;stroke:none"
         id="path406" /><path
         d="m 24972.5,4957.5 h 300 v 911.2 h -300 v -911.2"
         style="fill:#ccbdb7;fill-opacity:1;fill-rule:nonzero;stroke:none"
         id="path408" /><path
         d="m 22499.4,4781.4 h 4389.4 v 175 h -4389.4 v -175"
         style="fill:#b59074;fill-opacity:1;fill-rule:nonzero;stroke:none"
         id="path410" /><path
         d="m 27731.2,6015.3 c 0,0 48,-673.3 -83.5,-753.8 -82.5,-50.5 -411,-220.8 -401.3,-252.7 9.8,-31.9 185.5,-284 185.5,-284 0,0 631.2,415.6 651.5,546.5 19.9,128 -31.1,985.8 -117.8,1025.3 -65,29.6 -99.3,5.1 -181.1,-55.7 -115,-85.3 -53.3,-225.6 -53.3,-225.6"
         style="fill:#323657;fill-opacity:1;fill-rule:nonzero;stroke:none"
         id="path412" /><path
         d="m 26581,5823 -55.6,20.6 c 0,0 69.3,162.9 99.6,158.9 34.9,-4.6 78.4,-16.1 78.4,-16.1 L 26581,5823"
         style="fill:#ead8cf;fill-opacity:1;fill-rule:nonzero;stroke:none"
         id="path414" /><path
         d="m 26568.3,5795 c 7.1,5.3 118.2,218.5 118.2,218.5 l 237.4,-32.3 -128.3,-252.5 -227.3,66.3"
         style="fill:#da9b5b;fill-opacity:1;fill-rule:nonzero;stroke:none"
         id="path416" /><path
         d="m 26954.7,2124.7 c 0,0 19.6,-136.2 22.1,-156.7 2.4,-20.4 218.3,12.1 218.3,12.1 l 17.5,162.2 c 0,0 -230.9,1.6 -257.9,-17.6"
         style="fill:#424773;fill-opacity:1;fill-rule:nonzero;stroke:none"
         id="path418" /><path
         d="m 26974.5,1985.4 c 0,0 -68.4,-82.1 -134.6,-117.9 -66.1,-35.8 -170.1,-50 -209.2,-87 -28.2,-26.7 -102.8,-141.8 171.9,-139.5 274.8,2.3 407.2,-16.2 436.6,27.9 29.5,44.1 -42.5,325.7 -42.5,325.7 0,0 -65.1,-23.4 -222.2,-9.2"
         style="fill:#292c47;fill-opacity:1;fill-rule:nonzero;stroke:none"
         id="path420" /><path
         d="m 25571.7,2123.4 c 0,0 19.6,-136.2 22.1,-156.7 2.4,-20.4 218.3,12.1 218.3,12.1 l 17.5,162.2 c 0,0 -230.9,1.6 -257.9,-17.6"
         style="fill:#424773;fill-opacity:1;fill-rule:nonzero;stroke:none"
         id="path422" /><path
         d="m 25591.5,1984.1 c 0,0 -68.4,-82.1 -134.6,-117.9 -66.1,-35.8 -309.5,-65.2 -348.7,-102.2 -28.2,-26.7 -75.2,-134.3 311.4,-124.3 274.7,7.2 407.2,-16.2 436.6,27.9 29.5,44.1 -42.5,325.7 -42.5,325.7 0,0 -61.3,-25 -222.2,-9.2"
         style="fill:#292c47;fill-opacity:1;fill-rule:nonzero;stroke:none"
         id="path424" /><path
         d="m 27650.9,4477.8 c 0,0 -784.7,-132.8 -962,-160.7 -177.3,-27.8 -1138.4,-267 -1258.5,-339.8 -95.7,-58 50.1,-1451.2 84.2,-1982.7 h 378.6 l 27.4,1594.4 c 454.3,-11.4 778.4,106.3 1109.2,56 330.8,-50.2 606.6,-121.6 816.8,160.3 0,0 7.8,610.9 -195.7,672.5"
         style="fill:#292c47;fill-opacity:1;fill-rule:nonzero;stroke:none"
         id="path426" /><path
         d="m 26877.4,1993.3 368.9,22.8 36,1572.9 c 195.5,-4.9 262.6,7.5 420.8,26.7 L 28001,4308 c -261,-52.1 -1097.4,-263.1 -1208.9,-330.7 -95.7,-58 51.2,-1452.5 85.3,-1984"
         style="fill:#292c47;fill-opacity:1;fill-rule:nonzero;stroke:none"
         id="path428" /><path
         d="m 27289.7,7419.5 c 0,0 -287.7,79.5 -397.5,-143.9 -109.7,-223.3 -60,-646.7 85,-686.5 145,-39.8 353.5,6 413.7,145 60.2,139 108.2,336.6 93.8,464.5 -14.4,127.9 -118.6,190.3 -195,220.9"
         style="fill:#eea886;fill-opacity:1;fill-rule:nonzero;stroke:none"
         id="path430" /><path
         d="m 27052.4,6633.7 c 0,0 3.2,-169.9 -15.6,-206.1 -18.7,-36.2 400.6,-27.1 400.6,-27.1 0,0 -66.1,203.9 -28.6,377.7 37.1,172 -356.4,-144.5 -356.4,-144.5"
         style="fill:#eea886;fill-opacity:1;fill-rule:nonzero;stroke:none"
         id="path432" /><path
         d="m 27431.4,6842.5 c 0,0 -22.4,-45.6 -130.9,-38.2 -108.6,7.4 -251.7,138.3 -297.8,150 -46.1,11.7 -48.8,37.9 -48.8,37.9 l -24.4,-43.3 -47.2,-7.2 c 0,0 32.1,131.2 -37.8,177.4 -69.9,46.3 31.4,418.4 385.4,328.7 0,0 270.1,-49.5 273.7,-200.3 3.6,-150.9 -19.7,-325.1 -72.2,-405"
         style="fill:#3a3f47;fill-opacity:1;fill-rule:nonzero;stroke:none"
         id="path434" /><path
         d="m 27014.8,6432 c 0,0 1.2,69.2 32.5,75.8 31.4,6.6 329.6,47.6 368.1,32.5 l 16.5,-91.3 c 0,0 -74.1,-45.7 -417.1,-17"
         style="fill:#e2d2ca;fill-opacity:1;fill-rule:nonzero;stroke:none"
         id="path436" /><path
         d="m 26928.5,7023.2 c 8,56.7 72.5,121.8 109.4,33.5 36.9,-88.4 -24.9,-217 -66.3,-210.1 -41.4,6.9 -54,99.6 -43.1,176.6"
         style="fill:#eea886;fill-opacity:1;fill-rule:nonzero;stroke:none"
         id="path438" /><path
         d="m 25765.5,5614.6 c 0.2,0 0.3,0 0.5,0 -2.1,-0.9 -2.4,-1 -0.5,0"
         style="fill:#323657;fill-opacity:1;fill-rule:nonzero;stroke:none"
         id="path440" /><path
         d="m 27373.6,7379 c 0,0 350.8,16.5 61.2,-531.1 l -61.2,531.1"
         style="fill:#3a3f47;fill-opacity:1;fill-rule:nonzero;stroke:none"
         id="path442" /><path
         d="m 28155.1,1806.7 -26,-73.4 -1102.6,341.6 52.9,148.7 1075.7,-416.9"
         style="fill:#918783;fill-opacity:1;fill-rule:nonzero;stroke:none"
         id="path444" /><path
         d="m 26988.7,2127.2 h 125.3 v 1198.7 h -125.3 V 2127.2"
         style="fill:#918783;fill-opacity:1;fill-rule:nonzero;stroke:none"
         id="path446" /><path
         d="m 26681.8,3319 h 739.1 v 70.6 h -739.1 V 3319"
         style="fill:#5e5854;fill-opacity:1;fill-rule:nonzero;stroke:none"
         id="path448" /><path
         d="m 25937.9,1806.7 26.1,-73.4 1102.5,341.6 -48.4,158 -1080.2,-426.2"
         style="fill:#918783;fill-opacity:1;fill-rule:nonzero;stroke:none"
         id="path450" /><path
         d="m 26714.7,1741.2 v -85.4 l 351.8,419.1 -48.4,158 -303.4,-491.7"
         style="fill:#918783;fill-opacity:1;fill-rule:nonzero;stroke:none"
         id="path452" /><path
         d="m 25834.8,1704.6 c 0,-56.9 46.2,-103 103.1,-103 56.9,0 103,46.1 103,103 0,56.9 -46.1,103.1 -103,103.1 -56.9,0 -103.1,-46.2 -103.1,-103.1"
         style="fill:#bfb2ac;fill-opacity:1;fill-rule:nonzero;stroke:none"
         id="path454" /><path
         d="m 26705.9,1704.6 c 0,-56.9 46.2,-103 103.1,-103 56.9,0 103,46.1 103,103 0,56.9 -46.1,103.1 -103,103.1 -56.9,0 -103.1,-46.2 -103.1,-103.1"
         style="fill:#bfb2ac;fill-opacity:1;fill-rule:nonzero;stroke:none"
         id="path456" /><path
         d="m 28052.1,1704.6 c 0,-56.9 46.1,-103 103,-103 57,0 103.1,46.1 103.1,103 0,56.9 -46.1,103.1 -103.1,103.1 -56.9,0 -103,-46.2 -103,-103.1"
         style="fill:#bfb2ac;fill-opacity:1;fill-rule:nonzero;stroke:none"
         id="path458" /><path
         d="m 26303.1,3389.6 h 1486.8 c 73,0 132.1,59.1 132.1,132.1 v 3.4 c 0,72.9 -59.1,132 -132.1,132 h -1486.8 c -73,0 -132.1,-59.1 -132.1,-132 v -3.4 c 0,-73 59.1,-132.1 132.1,-132.1"
         style="fill:#e2d2ca;fill-opacity:1;fill-rule:nonzero;stroke:none"
         id="path460" /><path
         d="m 23061,1704.6 h 99.9 V 4781.4 H 23061 V 1704.6"
         style="fill:#706865;fill-opacity:1;fill-rule:nonzero;stroke:none"
         id="path462" /><path
         d="m 23959,5429.8 h 2326.9 c 72.8,0 131.8,59 131.8,131.7 v 1563.9 c 0,72.8 -59,131.8 -131.8,131.8 H 23959 c -72.8,0 -131.8,-59 -131.8,-131.8 V 5561.5 c 0,-72.7 59,-131.7 131.8,-131.7"
         style="fill:#f2e2d9;fill-opacity:1;fill-rule:nonzero;stroke:none"
         id="path464" /><path
         d="m 23928.7,5716.2 h 2387.5 V 7158.4 H 23928.7 V 5716.2"
         style="fill:#f5f7ff;fill-opacity:1;fill-rule:nonzero;stroke:none"
         id="path466" /><path
         d="m 25038.9,5600.8 c 0,-46.2 37.4,-83.6 83.6,-83.6 46.1,0 83.5,37.4 83.5,83.6 0,46.1 -37.4,83.5 -83.5,83.5 -46.2,0 -83.6,-37.4 -83.6,-83.5"
         style="fill:#918681;fill-opacity:1;fill-rule:nonzero;stroke:none"
         id="path468" /><path
         d="m 24586.2,4954.1 v 32.5 c 0,0 45.7,202.2 369.1,202.2 323.4,0 316.8,-234.7 316.8,-234.7 h -685.9"
         style="fill:#e2d2ca;fill-opacity:1;fill-rule:nonzero;stroke:none"
         id="path470" /><path
         d="m 25276.1,5158.8 c 0,0 -70.3,5.4 -96,21 -25.8,15.5 -179.8,119.1 -215.9,102.5 -36.2,-16.6 -276.9,-90.3 -268.6,-125.5 8.4,-35.2 30.7,-31.8 47.7,-25.6 16.9,6.2 191.7,42.9 207.1,36.7 0,0 -171.6,-62.6 -172.3,-108.3 -0.7,-45.7 35.9,-56.8 52.2,-74.1 16.3,-17.3 35.8,-60.2 80.1,-63.5 44.2,-3.3 260.1,71.8 304.5,75.2 44.5,3.5 126.7,-2.7 132.3,4.5 5.6,7.3 -71.1,157.1 -71.1,157.1"
         style="fill:#eea886;fill-opacity:1;fill-rule:nonzero;stroke:none"
         id="path472" /><path
         d="m 26555,6336.1 c 224,39.3 459.8,95.9 459.8,95.9 l 417.2,17 c 0,0 382.8,-84.3 533.6,-152.4 14.3,-6.5 14.4,-341.6 53.6,-429.4 l -125,-263.8 c 0,0 -72.2,-522.4 -87.2,-754.7 -6.9,-106.7 19.5,-1030.9 19.5,-1030.9 0,0 -37.5,-18.5 -322.2,-49.9 -284.7,-31.3 -996.1,11.4 -1000.6,45 -4.5,33.6 137.8,1252.2 144.1,1315.3 9.6,96.8 -28,544.3 -28,544.3 -53.6,-72 -190.4,-397.4 -332.9,-552.2 -83.9,-91.1 -499.1,-147 -577.3,-149.6 -170.4,-5.7 -481.2,-39.6 -490.2,-23 -7.3,9.9 -27.1,275.8 -7.6,282.3 17,5.7 594.1,38.9 741.9,117.4 54.1,28.7 215.8,381.3 215.8,381.3 0,0 262,551.9 385.5,607.4"
         style="fill:#323657;fill-opacity:1;fill-rule:nonzero;stroke:none"
         id="path474" /><path
         d="m 27377.1,3844.5 h 700.4 c 140,0 253.6,113.6 253.6,253.6 v 1165.2 c 0,140.1 -113.6,253.6 -253.6,253.6 h -700.4 c -140,0 -253.6,-113.5 -253.6,-253.6 V 4098.1 c 0,-140 113.6,-253.6 253.6,-253.6"
         style="fill:#e2d2ca;fill-opacity:1;fill-rule:nonzero;stroke:none"
         id="path476" /><path
         d="m 27337.5,3456.2 c 178,0 322.4,59.8 429.2,177.7 241.4,266.5 198,735 196.1,754.8 -3.7,36.9 -36.6,63.9 -73.5,60.2 -36.9,-3.6 -63.9,-36.5 -60.2,-73.4 0.5,-5.4 38.9,-430 -162.2,-651.7 -81.4,-89.7 -189.1,-133.3 -329.4,-133.3 -37.1,0 -67.2,-30 -67.2,-67.1 0,-37.1 30.1,-67.2 67.2,-67.2"
         style="fill:#e2d2ca;fill-opacity:1;fill-rule:nonzero;stroke:none"
         id="path478" /><path
         d="m 25466.5,6967.4 h 661.6 c 10.4,0 18.9,8.4 18.9,18.8 v 38.5 c 0,10.4 -8.5,18.9 -18.9,18.9 h -661.6 c -10.4,0 -18.9,-8.5 -18.9,-18.9 v -38.5 c 0,-10.4 8.5,-18.8 18.9,-18.8"
         style="fill:#dfe1e8;fill-opacity:1;fill-rule:nonzero;stroke:none"
         id="path480" /><path
         d="m 25466.5,6803.9 h 661.6 c 10.4,0 18.9,8.5 18.9,18.9 v 38.4 c 0,10.5 -8.5,18.9 -18.9,18.9 h -661.6 c -10.4,0 -18.9,-8.4 -18.9,-18.9 v -38.4 c 0,-10.4 8.5,-18.9 18.9,-18.9"
         style="fill:#dfe1e8;fill-opacity:1;fill-rule:nonzero;stroke:none"
         id="path482" /><path
         d="m 25511.1,5831 h 572.4 c 35,0 63.5,28.5 63.5,63.5 v 734.7 c 0,35 -28.5,63.5 -63.5,63.5 h -572.4 c -35.1,0 -63.5,-28.5 -63.5,-63.5 v -734.7 c 0,-35 28.4,-63.5 63.5,-63.5"
         style="fill:#dfe1e8;fill-opacity:1;fill-rule:nonzero;stroke:none"
         id="path484" /><path
         d="m 24161.5,5831 h 1044.4 c 55.5,0 100.5,45 100.5,100.6 V 6943 c 0,55.5 -45,100.6 -100.5,100.6 h -1044.4 c -55.5,0 -100.5,-45.1 -100.5,-100.6 V 5931.6 c 0,-55.6 45,-100.6 100.5,-100.6"
         style="fill:#dfe1e8;fill-opacity:1;fill-rule:nonzero;stroke:none"
         id="path486" /><path
         d="m 10519.4,6833.7 -656.74,-360.9 -659.49,1037.7 797.63,277.1 518.6,-953.9"
         style="fill:#292c47;fill-opacity:1;fill-rule:nonzero;stroke:none"
         id="path488" /><path
         d="m 10477.7,6864.9 -614.12,-337.6 -616.72,970.6 745.91,259.1 484.93,-892.1"
         style="fill:#e2d2ca;fill-opacity:1;fill-rule:nonzero;stroke:none"
         id="path490" /><path
         d="m 10702.6,7046.4 c 0,0 -114.3,54.7 -164.4,83.2 -50.2,28.6 -179.3,67.8 -189.7,77.2 -10.4,9.3 -382.56,32.2 -405.14,51.7 -22.57,19.5 -44.51,-45.6 51.93,-66.8 96.41,-21.1 230.71,-72.8 238.01,-110.5 7.4,-37.6 -99.1,-46.6 -109.8,-77.6 -10.8,-31.1 3,-24.1 18.2,-30.8 15.3,-6.6 126.6,55 175.6,37.5 48.9,-17.5 123.7,6.8 161.3,-6.1 37.5,-12.8 219.9,-74.2 219.9,-74.2 l 4.1,116.4"
         style="fill:#eea886;fill-opacity:1;fill-rule:nonzero;stroke:none"
         id="path492" /><path
         d="m 9830.64,6603 c 0,0 -96.02,86.4 -142.48,122.5 -46.46,36.2 -133.68,142.5 -146.52,148.7 -12.83,6.2 -179.37,348 -206.51,361.7 -27.14,13.7 25.67,59.7 83.13,-23 57.47,-82.6 158.42,-189 196.8,-181.2 38.39,7.7 5.36,111.5 30.43,133.7 25.07,22.3 23.88,6.5 36.09,-5.2 12.22,-11.8 -2.54,-140.7 33.01,-180 35.55,-39.4 41.86,-119.3 68.56,-149.7 26.72,-30.3 155.6,-178.3 155.6,-178.3 L 9830.64,6603"
         style="fill:#eea886;fill-opacity:1;fill-rule:nonzero;stroke:none"
         id="path494" /><path
         d="m 11898.6,1983.6 c 0,0 20.8,-144.1 23.4,-165.8 2.6,-21.6 231.1,12.8 231.1,12.8 l 18.5,171.6 c 0,0 -244.4,1.8 -273,-18.6"
         style="fill:#424773;fill-opacity:1;fill-rule:nonzero;stroke:none"
         id="path496" /><path
         d="m 11919.6,1836.1 c 0,0 -72.4,-86.8 -142.4,-124.7 -70.1,-37.9 -180.1,-52.9 -221.5,-92.1 -29.9,-28.3 -108.8,-150.1 182,-147.6 290.7,2.5 430.9,-17.2 462.1,29.5 31.1,46.7 -45.1,344.7 -45.1,344.7 0,0 -68.9,-24.8 -235.1,-9.8"
         style="fill:#292c47;fill-opacity:1;fill-rule:nonzero;stroke:none"
         id="path498" /><path
         d="m 10261.6,1983.6 c 0,0 20.8,-144.1 23.4,-165.8 2.6,-21.6 231,12.8 231,12.8 l 18.5,171.6 c 0,0 -244.3,1.8 -272.9,-18.6"
         style="fill:#424773;fill-opacity:1;fill-rule:nonzero;stroke:none"
         id="path500" /><path
         d="m 10282.5,1836.1 c 0,0 -72.3,-86.8 -142.4,-124.7 -70,-37.9 -327.61,-69 -369.02,-108.2 -29.88,-28.3 -79.58,-142.2 329.52,-131.5 290.7,7.6 431,-17.2 462.2,29.5 31.1,46.7 -45.1,344.7 -45.1,344.7 0,0 -64.9,-26.5 -235.2,-9.8"
         style="fill:#292c47;fill-opacity:1;fill-rule:nonzero;stroke:none"
         id="path502" /><path
         d="m 11709.4,5688.3 c 0,0 214.7,-341.1 198.7,-649.4 -16,-308.3 77.8,-644.9 110.1,-967 35.9,-359 183.1,-1209 188.4,-1401.1 5.3,-192.1 -22.8,-805.3 -22.8,-805.3 l -294.6,-6.8 c 0,0 -247.3,1486.1 -311.4,1637.7 -64,151.6 -381.7,1232.6 -392.4,1353.9 -10.7,121.3 524,838 524,838"
         style="fill:#292c47;fill-opacity:1;fill-rule:nonzero;stroke:none"
         id="path504" /><path
         d="m 10579.3,5642.1 c 0,0 -161.7,-845 -183.1,-1033.7 -21.3,-188.7 -35.6,-913.2 -46.3,-1031.1 -10.6,-118 -71.1,-1543.4 -128.1,-1718.6 h 376.5 c 0,0 289.1,1036.2 289.1,1526.5 0,490.2 223.3,1065.8 367.4,1389.3 144.1,323.5 474.1,331.1 562.7,931.3 0,0 -1118.2,126.7 -1238.2,-63.7"
         style="fill:#292c47;fill-opacity:1;fill-rule:nonzero;stroke:none"
         id="path506" /><path
         d="m 11351.2,8555.9 c 0,0 -288.1,107.6 -421,-111.7 -132.9,-219.4 -120.1,-658.5 25.2,-712.5 145.2,-54 363.4,-25.7 437.8,111.5 74.3,137.2 141.5,335.7 138.2,468.3 -3.2,132.6 -104.5,206.1 -180.2,244.4"
         style="fill:#eea886;fill-opacity:1;fill-rule:nonzero;stroke:none"
         id="path508" /><path
         d="m 10986.7,7721.7 c 0,0 12,-77.8 -7.9,-116.2 -19.8,-38.3 373.3,-39.3 373.3,-39.3 0,0 32,208.5 92.5,384.6 60.5,176.1 -457.9,-229.1 -457.9,-229.1"
         style="fill:#eea886;fill-opacity:1;fill-rule:nonzero;stroke:none"
         id="path510" /><path
         d="m 11444.6,7950.8 c 0,0 -27.2,-44.7 -137.9,-27.4 -110.8,17.4 -245.9,164.7 -292.1,180.9 -46.3,16.2 -46.7,43.4 -46.7,43.4 l -29,-42.3 -49.1,-3.1 c 0,0 44.8,131.8 -22.8,185.5 -67.6,53.8 70.2,426.7 425.4,302.5 0,0 272.8,-75.2 262.9,-230.3 -10,-155.2 -49.7,-331.9 -110.7,-409.2"
         style="fill:#3a3f47;fill-opacity:1;fill-rule:nonzero;stroke:none"
         id="path512" /><path
         d="m 10955.5,7610.2 c 0,0 1.2,73.2 34.4,80.2 33.2,7 366.4,39.1 407.1,23 v -85.2 c 0,0 -78.5,-48.4 -441.5,-18"
         style="fill:#e2d2ca;fill-opacity:1;fill-rule:nonzero;stroke:none"
         id="path514" /><path
         d="m 10975.2,8204.1 c 6.2,26 72.4,100.4 97.7,20.8 25.4,-79.7 -38.3,-186.8 -73.7,-177.6 -35.5,9.2 -39.7,90.8 -24,156.8"
         style="fill:#eea886;fill-opacity:1;fill-rule:nonzero;stroke:none"
         id="path516" /><path
         d="m 9633.26,6745 c 0.16,0.1 0.33,0.1 0.55,0.1 -2.29,-1 -2.61,-1.1 -0.55,-0.1"
         style="fill:#323657;fill-opacity:1;fill-rule:nonzero;stroke:none"
         id="path518" /><path
         d="m 11951.6,4875.8 c 0,0 -176.7,-52.1 -478,-85.3 -301.4,-33.2 -1054.3,12 -1059,47.6 -4.8,35.6 161.9,1325.7 152.5,1392.1 -9.5,66.4 -14.6,303.2 -14.6,303.2 -3.7,-64.9 -69.8,-329.8 -149.6,-474.3 -28.8,-52.1 -125.5,-215.7 -172.1,-178.5 -225.5,180.1 -574.82,858.7 -596.97,864.5 18.62,8.1 165.53,75.7 186.15,82.6 18.05,6 180.82,-166.3 279.42,-273.1 43.9,-47.6 75.1,-82.2 75.1,-82.2 28.5,64.1 132.2,467.6 164.4,607.3 72.7,315 61.5,328.1 61.5,328.1 220.5,66.6 555.1,202.4 555.1,202.4 l 441.5,18 c 0,0 405.3,-89.2 564.8,-161.3 15.2,-6.9 15.3,-361.5 56.8,-454.5 l -132.3,-279.2 c 0,0 -76.5,-552.9 -92.3,-798.8 -7.3,-112.9 157.6,-1058.6 157.6,-1058.6"
         style="fill:#ffdf69;fill-opacity:1;fill-rule:nonzero;stroke:none"
         id="path520" /><path
         d="m 12036.9,6551.9 c -11.5,-37.2 -63.9,-68.7 -97.8,-82.4 -21.8,-8.8 -46.2,-11.7 -70.7,-7.1 l -17.3,3.2 v 0 l -302.6,56.1 c 0,0 -66.2,762.5 413.3,945.2 12.7,-4.2 181,-573.6 75.1,-915"
         style="fill:#ffdf69;fill-opacity:1;fill-rule:nonzero;stroke:none"
         id="path522" /><path
         d="m 11939.1,6469.5 v 0 c -21.8,-8.8 -46.2,-11.7 -70.7,-7.1 l -17.3,3.2 v 0 l 29.8,389.6 58.2,-385.7"
         style="fill:#ab9546;fill-opacity:1;fill-rule:nonzero;stroke:none"
         id="path524" /><path
         d="m 10174.5,6472.4 -37,-156.6 c 0,0 -40.1,157.1 -38.1,238.8 43.9,-47.6 75.1,-82.2 75.1,-82.2"
         style="fill:#ab9546;fill-opacity:1;fill-rule:nonzero;stroke:none"
         id="path526" /><path
         d="m 11433.3,8530 c 0,0 377.6,47.3 6.4,-583.5 l -6.4,583.5"
         style="fill:#3a3f47;fill-opacity:1;fill-rule:nonzero;stroke:none"
         id="path528" /><path
         d="m 9506.76,7566.2 -38.38,66 302.35,104.3 38.37,-65.6 -302.34,-104.7"
         style="fill:#292c47;fill-opacity:1;fill-rule:nonzero;stroke:none"
         id="path530" /></g></g></svg>
